<svg width="50" height="70" viewBox="0 0 50 70" fill="none" xmlns="http://www.w3.org/2000/svg">
<path d="M0 0H50V66.2318C50 67.8354 48.2073 68.7869 46.8792 67.8882L25 53.0833L3.12084 67.8882C1.79269 68.7869 0 67.8354 0 66.2318V0Z" fill="url(#paint0_linear_195_529)"/>
<path d="M24.0391 40.7C24.0891 40.7 24.1141 40.75 24.1141 40.85C24.1141 40.95 24.0891 41 24.0391 41H20.5141C20.3474 41 20.0474 40.6667 19.6141 40C19.1807 39.3167 18.6724 38.3917 18.0891 37.225C17.5224 36.0583 16.9641 34.775 16.4141 33.375C16.1141 33.425 15.7974 33.45 15.4641 33.45C15.0974 33.45 14.6641 33.4333 14.1641 33.4V38.975C14.1641 39.4917 14.2057 39.8667 14.2891 40.1C14.3891 40.3333 14.5641 40.4917 14.8141 40.575C15.0807 40.6583 15.4974 40.7 16.0641 40.7C16.0974 40.7 16.1141 40.75 16.1141 40.85C16.1141 40.95 16.0974 41 16.0641 41C15.5141 41 15.0891 40.9917 14.7891 40.975L12.9391 40.95L11.1391 40.975C10.8224 40.9917 10.3891 41 9.83906 41C9.78906 41 9.76406 40.95 9.76406 40.85C9.76406 40.75 9.78906 40.7 9.83906 40.7C10.4057 40.7 10.8141 40.6583 11.0641 40.575C11.3307 40.4917 11.5141 40.3333 11.6141 40.1C11.7141 39.85 11.7641 39.475 11.7641 38.975V27.4C11.7641 26.9 11.7141 26.5333 11.6141 26.3C11.5307 26.0667 11.3557 25.9083 11.0891 25.825C10.8224 25.725 10.4141 25.675 9.86406 25.675C9.83073 25.675 9.81406 25.625 9.81406 25.525C9.81406 25.425 9.83073 25.375 9.86406 25.375L11.1641 25.4C11.8974 25.4333 12.4891 25.45 12.9391 25.45C13.3057 25.45 13.6391 25.4417 13.9391 25.425C14.2557 25.4083 14.5307 25.3917 14.7641 25.375C15.4141 25.325 16.0224 25.3 16.5891 25.3C18.0391 25.3 19.1557 25.5833 19.9391 26.15C20.7391 26.7167 21.1391 27.5083 21.1391 28.525C21.1391 29.4417 20.8724 30.275 20.3391 31.025C19.8224 31.775 19.1307 32.3667 18.2641 32.8C19.5807 35.65 20.6891 37.6833 21.5891 38.9C22.4891 40.1 23.3057 40.7 24.0391 40.7ZM14.1641 32.725C14.5641 32.7917 15.0474 32.825 15.6141 32.825C16.7141 32.825 17.4974 32.5583 17.9641 32.025C18.4474 31.475 18.6891 30.6 18.6891 29.4C18.6891 28.05 18.4557 27.1083 17.9891 26.575C17.5391 26.0417 16.8641 25.775 15.9641 25.775C15.3141 25.775 14.8474 25.9 14.5641 26.15C14.2974 26.3833 14.1641 26.8167 14.1641 27.45V32.725ZM41.4252 40.7C41.4752 40.7 41.5002 40.75 41.5002 40.85C41.5002 40.95 41.4752 41 41.4252 41H37.4002C37.0169 41 36.3002 40.3333 35.2502 39C34.2169 37.6667 32.9585 35.8 31.4752 33.4C31.1085 33.4333 30.8252 33.45 30.6252 33.45C30.2585 33.45 29.8252 33.4333 29.3252 33.4V38.975C29.3252 39.4917 29.3669 39.8667 29.4502 40.1C29.5502 40.3333 29.7252 40.4917 29.9752 40.575C30.2419 40.6583 30.6585 40.7 31.2252 40.7C31.2585 40.7 31.2752 40.75 31.2752 40.85C31.2752 40.95 31.2585 41 31.2252 41C30.6752 41 30.2502 40.9917 29.9502 40.975L28.1002 40.95L26.3002 40.975C25.9835 40.9917 25.5502 41 25.0002 41C24.9502 41 24.9252 40.95 24.9252 40.85C24.9252 40.75 24.9502 40.7 25.0002 40.7C25.5669 40.7 25.9752 40.6583 26.2252 40.575C26.4919 40.4917 26.6752 40.3333 26.7752 40.1C26.8752 39.85 26.9252 39.475 26.9252 38.975V27.4C26.9252 26.9 26.8752 26.5333 26.7752 26.3C26.6919 26.0667 26.5169 25.9083 26.2502 25.825C25.9835 25.725 25.5752 25.675 25.0252 25.675C24.9919 25.675 24.9752 25.625 24.9752 25.525C24.9752 25.425 24.9919 25.375 25.0252 25.375L26.3252 25.4C27.0585 25.4333 27.6502 25.45 28.1002 25.45C28.6502 25.45 29.2502 25.425 29.9002 25.375C30.1169 25.3583 30.3752 25.3417 30.6752 25.325C30.9919 25.3083 31.3419 25.3 31.7252 25.3C33.1752 25.3 34.2919 25.5833 35.0752 26.15C35.8752 26.7167 36.2752 27.5083 36.2752 28.525C36.2752 29.4417 36.0169 30.2667 35.5002 31C35.0002 31.7333 34.3252 32.3167 33.4752 32.75C34.8419 34.7667 35.9835 36.3417 36.9002 37.475C37.8169 38.6083 38.6252 39.4333 39.3252 39.95C40.0419 40.45 40.7419 40.7 41.4252 40.7ZM29.3252 32.725C29.7252 32.7917 30.2085 32.825 30.7752 32.825C31.8585 32.825 32.6335 32.5583 33.1002 32.025C33.5669 31.475 33.8002 30.6 33.8002 29.4C33.8002 28.05 33.5669 27.1083 33.1002 26.575C32.6502 26.0417 31.9919 25.775 31.1252 25.775C30.4752 25.775 30.0085 25.9 29.7252 26.15C29.4585 26.3833 29.3252 26.8167 29.3252 27.45V32.725Z" fill="#84663E"/>
<defs>
<linearGradient id="paint0_linear_195_529" x1="25" y1="0" x2="25" y2="70" gradientUnits="userSpaceOnUse">
<stop stop-color="#FFEACB"/>
<stop offset="0.484848" stop-color="#E9C99F"/>
<stop offset="1" stop-color="#C9AD88"/>
</linearGradient>
</defs>
</svg>
