<svg width="41" height="42" viewBox="0 0 41 42" fill="none" xmlns="http://www.w3.org/2000/svg">
<circle cx="20.7155" cy="21.2822" r="17.8945" fill="url(#paint0_linear_195_430)"/>
<circle cx="20.5" cy="21.2822" r="20.25" stroke="url(#paint1_linear_195_430)" stroke-width="0.5"/>
<path d="M26.825 20.6494H14.175C13.8257 20.6494 13.5425 20.9326 13.5425 21.2819C13.5425 21.6312 13.8257 21.9144 14.175 21.9144H26.825C27.1743 21.9144 27.4575 21.6312 27.4575 21.2819C27.4575 20.9326 27.1743 20.6494 26.825 20.6494Z" fill="#84663E"/>
<path d="M21.1324 27.6077L21.1324 14.9577C21.1324 14.6084 20.8492 14.3252 20.4999 14.3252C20.1507 14.3252 19.8674 14.6084 19.8674 14.9577L19.8674 27.6077C19.8674 27.957 20.1507 28.2402 20.4999 28.2402C20.8492 28.2402 21.1324 27.957 21.1324 27.6077Z" fill="#84663E"/>
<defs>
<linearGradient id="paint0_linear_195_430" x1="13.3853" y1="6.19045" x2="20.7155" y2="39.1767" gradientUnits="userSpaceOnUse">
<stop stop-color="#F7DEBB"/>
<stop offset="0.451211" stop-color="#E9C99F"/>
<stop offset="1" stop-color="#D0B48E"/>
</linearGradient>
<linearGradient id="paint1_linear_195_430" x1="20.5" y1="0.782227" x2="20.5" y2="41.7822" gradientUnits="userSpaceOnUse">
<stop stop-color="#FFEACB"/>
<stop offset="0.484848" stop-color="#E9C99F"/>
<stop offset="1" stop-color="#C9AD88"/>
</linearGradient>
</defs>
</svg>
