<svg width="288" height="25" viewBox="0 0 288 25" fill="none" xmlns="http://www.w3.org/2000/svg">
<path d="M141.737 7.89608C141.737 7.89608 141.609 7.83232 141.418 7.64104C141.163 7.44977 140.844 7.25849 140.398 6.93969C139.505 6.3021 138.102 5.40948 136.253 4.38933C135.297 3.87926 134.277 3.36918 133.065 2.85911C132.492 2.60407 131.854 2.4128 131.216 2.15776C130.579 1.96648 129.877 1.77521 129.112 1.58393C128.411 1.39265 127.646 1.26513 126.817 1.20137C126.052 1.07385 125.223 1.07385 124.394 1.0101C124.203 1.0101 123.948 1.0101 123.757 1.0101C123.565 1.0101 123.31 1.0101 123.119 1.0101C122.928 1.0101 122.673 1.0101 122.481 1.07385C122.29 1.07385 122.035 1.13761 121.844 1.13761C120.951 1.20137 120.058 1.32889 119.102 1.52017C118.209 1.71145 117.253 1.96648 116.36 2.28528C115.468 2.60407 114.511 2.98663 113.683 3.4967C113.236 3.75174 112.854 4.00677 112.407 4.32557C112.025 4.64437 111.642 4.96316 111.26 5.34572C110.558 6.04707 109.921 6.93969 109.474 7.89608C109.028 8.85247 108.773 9.87261 108.646 10.9565C108.646 11.084 108.646 11.2116 108.646 11.3391C108.646 11.4666 108.646 11.5941 108.646 11.7216V11.9129C108.646 11.9767 108.646 12.0404 108.646 12.1042C108.646 12.2317 108.646 12.3592 108.646 12.4867C108.709 12.9968 108.837 13.5706 108.964 14.0807C109.156 14.5908 109.347 15.1009 109.602 15.6109C109.857 16.121 110.24 16.5673 110.558 17.0136C110.941 17.46 111.323 17.8425 111.77 18.2251C112.216 18.6076 112.726 18.9264 113.236 19.2452C114.256 19.8828 115.404 20.3929 116.552 20.7754C117.699 21.158 118.975 21.413 120.25 21.5405C121.525 21.6681 122.8 21.6681 124.075 21.4768C125.35 21.3493 126.626 21.0305 127.901 20.6479C130.451 19.8828 132.874 18.6714 135.297 17.2687C137.72 15.9297 140.143 14.3995 142.629 12.9331C143.267 12.5505 143.904 12.2317 144.478 11.8491C145.116 11.4666 145.69 11.1478 146.327 10.7652C147.539 10.0639 148.75 9.36254 150.025 8.66119C152.448 7.25849 154.935 5.91955 157.421 4.83564C158.697 4.26181 159.972 3.75174 161.247 3.36918C162.522 2.92287 163.861 2.60407 165.2 2.34904C166.539 2.094 167.878 1.96648 169.217 2.03024C169.408 2.03024 169.536 2.03024 169.727 2.03024C169.918 2.03024 170.046 2.03024 170.237 2.094H170.492H170.619H170.747C170.938 2.094 171.066 2.15776 171.257 2.15776L171.512 2.22152C171.576 2.22152 171.703 2.22152 171.767 2.28528C171.958 2.28528 172.086 2.34904 172.277 2.34904C172.596 2.4128 172.915 2.47656 173.234 2.60407C173.552 2.66783 173.871 2.79535 174.19 2.92287L174.445 2.98663C174.509 2.98663 174.573 3.05039 174.7 3.05039C174.828 3.11415 175.019 3.17791 175.146 3.24167C175.274 3.30542 175.465 3.36918 175.593 3.43294C175.72 3.4967 175.911 3.56046 176.039 3.62422C176.167 3.68798 176.294 3.8155 176.422 3.87926L176.613 4.00677L176.74 4.07053C176.804 4.07053 176.804 4.13429 176.868 4.13429C176.995 4.19805 177.123 4.32557 177.25 4.38933C177.314 4.45309 177.378 4.45309 177.442 4.51685L177.633 4.64437C177.76 4.77188 177.888 4.83564 178.016 4.96316C178.143 5.09068 178.207 5.2182 178.334 5.28196L178.526 5.47324C178.589 5.53699 178.653 5.60075 178.653 5.66451C178.781 5.79203 178.844 5.91955 178.972 6.04707C179.036 6.17458 179.163 6.3021 179.227 6.42962L179.354 6.6209C179.418 6.68466 179.418 6.74842 179.482 6.81218C179.546 6.93969 179.61 7.06721 179.737 7.19473C179.801 7.32225 179.865 7.44977 179.928 7.64104L180.056 7.83232C180.056 7.89608 180.12 7.95984 180.12 8.0236C180.183 8.15112 180.247 8.27864 180.311 8.46991C180.375 8.59743 180.375 8.78871 180.438 8.91623L180.502 9.1075C180.502 9.17126 180.566 9.23502 180.566 9.29878C180.566 9.4263 180.63 9.61758 180.63 9.7451C180.63 9.87261 180.693 10.0639 180.693 10.1914V10.3827C180.693 10.4464 180.693 10.5102 180.693 10.574C180.693 10.7015 180.693 10.8928 180.693 11.0203C180.693 11.1478 180.693 11.3391 180.693 11.4666C180.693 11.5941 180.693 11.7854 180.693 11.9129C180.693 12.0404 180.693 12.2317 180.693 12.3592C180.693 12.4867 180.693 12.6143 180.63 12.8055V12.9968V13.1243V13.2518C180.63 13.3794 180.566 13.5069 180.566 13.6982C180.12 15.9297 179.036 17.97 177.505 19.4365C176.74 20.1378 175.911 20.7754 175.083 21.3493C174.891 21.4768 174.636 21.6043 174.445 21.7318C174.254 21.8593 173.999 21.9869 173.807 22.1144C173.361 22.3694 172.915 22.5607 172.468 22.752C171.576 23.1345 170.683 23.4533 169.791 23.6446C169.599 23.7083 169.344 23.7721 169.153 23.7721C168.962 23.8359 168.707 23.8359 168.515 23.8996C168.324 23.9634 168.069 23.9634 167.878 24.0271C167.687 24.0271 167.432 24.0909 167.24 24.0909C167.049 24.0909 166.794 24.0909 166.603 24.1547C166.475 24.1547 166.411 24.1547 166.284 24.1547C166.156 24.1547 166.093 24.1547 165.965 24.1547C165.774 24.1547 165.519 24.1547 165.327 24.1547H165.2H165.072C164.945 24.1547 164.881 24.1547 164.754 24.1547C164.626 24.1547 164.562 24.1547 164.435 24.1547H164.307H164.18C163.989 24.1547 163.797 24.0909 163.606 24.0909C163.415 24.0909 163.223 24.0271 163.032 24.0271C162.841 24.0271 162.65 23.9634 162.458 23.9634C160.992 23.7083 159.589 23.262 158.441 22.752C157.23 22.2419 156.21 21.6681 155.317 21.158C153.532 20.0103 152.321 18.9264 151.492 18.1613C151.109 17.7787 150.79 17.46 150.599 17.2687C150.79 17.46 151.109 17.7787 151.492 18.0975C152.321 18.7989 153.596 19.8828 155.381 20.9667C156.274 21.4768 157.358 22.0506 158.505 22.4969C159.717 22.9432 161.056 23.3258 162.522 23.5808C162.713 23.5808 162.905 23.6446 163.096 23.6446C163.287 23.6446 163.478 23.7083 163.67 23.7083C163.861 23.7083 164.052 23.7083 164.244 23.7721H164.371H164.499C164.626 23.7721 164.69 23.7721 164.817 23.7721C164.945 23.7721 165.009 23.7721 165.136 23.7721H165.264H165.391C165.583 23.7721 165.774 23.7721 166.029 23.7721C166.156 23.7721 166.22 23.7721 166.348 23.7721C166.475 23.7721 166.539 23.7721 166.666 23.7721C166.858 23.7721 167.113 23.7721 167.304 23.7083C167.495 23.7083 167.75 23.6446 167.942 23.6446C168.133 23.5808 168.388 23.5808 168.579 23.5171C168.77 23.5171 169.025 23.4533 169.217 23.3896C169.408 23.3258 169.663 23.3258 169.854 23.262C170.683 23.0708 171.576 22.752 172.405 22.3694C174.062 21.6043 175.72 20.5204 177.123 19.0539C177.314 18.8627 177.442 18.6714 177.633 18.4801C177.697 18.3526 177.76 18.2888 177.888 18.1613C177.952 18.0338 178.016 17.97 178.079 17.8425L178.207 17.715C178.271 17.6512 178.271 17.5875 178.334 17.5875C178.398 17.46 178.462 17.3962 178.526 17.2687C178.589 17.1412 178.653 17.0774 178.717 16.9499C178.781 16.8224 178.844 16.7586 178.908 16.6311C179.036 16.376 179.163 16.1848 179.227 15.9297C179.291 15.8022 179.354 15.6747 179.354 15.5472C179.418 15.4197 179.418 15.2921 179.482 15.1646L179.546 14.9733L179.61 14.7821C179.673 14.6545 179.673 14.527 179.737 14.3995C179.801 14.272 179.801 14.1445 179.801 14.017C179.801 13.8894 179.865 13.7619 179.865 13.6344C179.865 13.5069 179.928 13.3794 179.928 13.2518V13.1243V12.9968V12.8055C179.928 12.678 179.928 12.5505 179.992 12.423C179.992 12.2955 179.992 12.1679 179.992 12.0404C179.992 11.9129 179.992 11.7854 179.992 11.6579C179.992 11.5304 179.992 11.4028 179.992 11.2753C179.992 11.1478 179.992 11.0203 179.928 10.8928C179.928 10.829 179.928 10.7652 179.928 10.7015V10.5102C179.928 10.3827 179.865 10.2552 179.865 10.1277C179.865 10.0001 179.801 9.87261 179.801 9.7451C179.801 9.68134 179.801 9.61758 179.737 9.55382L179.673 9.36254C179.61 9.23502 179.61 9.1075 179.546 8.97999C179.482 8.85247 179.418 8.72495 179.418 8.59743C179.418 8.53367 179.354 8.46991 179.354 8.40615L179.291 8.21488C179.227 8.08736 179.163 7.95984 179.099 7.83232C179.036 7.7048 178.972 7.57729 178.908 7.44977C178.844 7.38601 178.844 7.32225 178.781 7.25849L178.653 7.06721C178.589 6.93969 178.526 6.81218 178.398 6.74842C178.334 6.6209 178.207 6.55714 178.143 6.42962C178.079 6.36586 178.079 6.3021 178.016 6.3021L177.888 6.17458C177.76 6.04707 177.697 5.98331 177.569 5.85579C177.442 5.79203 177.378 5.66451 177.25 5.60075L176.613 5.47324C176.549 5.40948 176.485 5.40948 176.422 5.34572C176.294 5.28196 176.167 5.15444 176.103 5.09068L176.039 5.02692L175.911 4.96316L175.72 4.83564C175.593 4.77188 175.465 4.70813 175.338 4.64437C175.21 4.58061 175.083 4.51685 174.955 4.45309C174.828 4.38933 174.7 4.32557 174.573 4.26181C174.445 4.19805 174.318 4.13429 174.19 4.07053C174.126 4.07053 174.062 4.00677 173.999 4.00677L173.807 3.94302C173.552 3.87926 173.234 3.75174 172.979 3.68798C172.66 3.62422 172.405 3.56046 172.086 3.4967C171.958 3.4967 171.767 3.43294 171.64 3.43294C171.576 3.43294 171.512 3.43294 171.385 3.36918H171.13C171.002 3.36918 170.811 3.30542 170.683 3.30542H170.556H170.428H170.173C170.046 3.30542 169.854 3.30542 169.727 3.30542C169.599 3.30542 169.408 3.30542 169.281 3.30542C168.069 3.30542 166.794 3.43294 165.519 3.68798C164.244 3.94302 163.032 4.26181 161.757 4.70813C160.546 5.15444 159.27 5.60075 158.059 6.17458C155.636 7.25849 153.213 8.59743 150.79 10.0001C149.579 10.7015 148.368 11.4028 147.156 12.1042C146.519 12.4867 145.945 12.8055 145.307 13.1881C144.67 13.5706 144.032 13.8894 143.458 14.272C140.971 15.6747 138.549 17.2049 136.126 18.6076C133.639 20.0103 131.089 21.2217 128.411 22.0506C127.072 22.4332 125.733 22.752 124.33 22.8795C122.928 23.007 121.589 23.007 120.25 22.8795C118.911 22.752 117.572 22.4332 116.297 21.9869C115.022 21.5405 113.874 21.0305 112.726 20.3291C112.152 20.0103 111.642 19.6278 111.132 19.1814C110.622 18.7989 110.176 18.2888 109.793 17.8425C109.411 17.3324 109.028 16.8224 108.709 16.3123C108.391 15.7385 108.136 15.1646 108.008 14.5908C107.817 14.017 107.753 13.3794 107.689 12.8055C107.689 12.678 107.689 12.4867 107.689 12.3592C107.689 12.2955 107.689 12.2317 107.689 12.1042V11.8491C107.689 11.7216 107.689 11.5304 107.689 11.4028C107.689 11.2753 107.689 11.084 107.689 10.9565C107.817 9.7451 108.136 8.66119 108.646 7.57729C109.156 6.55714 109.857 5.66451 110.622 4.83564C111.005 4.45309 111.451 4.07053 111.897 3.75174C112.344 3.43294 112.79 3.17791 113.236 2.85911C114.193 2.34904 115.149 1.96648 116.105 1.64769C117.062 1.32889 118.018 1.07385 118.975 0.946337C119.931 0.755059 120.824 0.6913 121.78 0.627541C122.035 0.627541 122.226 0.563782 122.481 0.563782C122.736 0.563782 122.928 0.563782 123.183 0.563782C123.374 0.563782 123.629 0.563782 123.82 0.563782C124.012 0.563782 124.267 0.563782 124.458 0.563782C125.35 0.627541 126.179 0.6913 126.944 0.818818C127.773 0.946337 128.538 1.07385 129.24 1.26513C130.005 1.45641 130.706 1.64769 131.344 1.90272C131.981 2.15776 132.619 2.4128 133.257 2.66783C134.468 3.17791 135.488 3.75174 136.381 4.26181C138.23 5.34572 139.569 6.3021 140.461 6.93969C140.908 7.25849 141.227 7.51353 141.482 7.7048C141.609 7.83232 141.737 7.89608 141.737 7.89608Z" fill="#84663E"/>
<path d="M127.773 16.5673C127.773 16.5673 127.901 16.5673 128.092 16.5036C128.22 16.5036 128.347 16.4398 128.475 16.4398C128.602 16.4398 128.793 16.376 128.985 16.376C129.75 16.2485 130.897 15.9297 132.236 15.4834C133.575 14.9733 135.105 14.272 136.763 13.3794C138.421 12.4867 140.142 11.4028 141.991 10.2552C142.948 9.68133 143.84 9.17125 144.733 8.66118C145.179 8.40614 145.626 8.15111 146.072 7.95983C146.518 7.70479 146.965 7.51352 147.347 7.32224C149.005 6.42961 150.471 5.60074 151.81 4.96315C152.002 4.89939 152.129 4.77187 152.257 4.70811C152.384 4.64435 152.575 4.5806 152.703 4.51684C153.022 4.38932 153.277 4.2618 153.532 4.13428C154.042 3.87925 154.488 3.68797 154.871 3.56045C155.636 3.30541 156.018 3.11414 156.018 3.11414C156.018 3.11414 155.636 3.36917 154.935 3.75173C154.616 3.943 154.169 4.19804 153.723 4.51684C153.468 4.64436 153.213 4.83563 152.958 5.02691C152.831 5.09067 152.703 5.21819 152.512 5.28195C152.384 5.34571 152.257 5.47322 152.065 5.60074C151.492 5.9833 150.79 6.42961 150.153 6.87592C149.77 7.13096 149.451 7.32224 149.069 7.57728C148.686 7.83231 148.304 8.08735 147.921 8.34238C147.539 8.59742 147.092 8.85246 146.646 9.10749C146.2 9.36253 145.817 9.61757 145.371 9.8726C144.478 10.3827 143.585 10.9565 142.629 11.5303C140.78 12.678 138.931 13.6982 137.21 14.527C135.488 15.3559 133.83 15.9297 132.364 16.2485C130.961 16.5673 129.75 16.6948 128.921 16.7586C128.73 16.7586 128.538 16.7586 128.411 16.7586C128.283 16.7586 128.092 16.7586 128.028 16.7586C127.901 16.5673 127.773 16.5673 127.773 16.5673Z" fill="#84663E"/>
<path d="M131.089 21.0942C131.089 21.0942 131.216 21.0942 131.408 21.0304C131.535 21.0304 131.663 20.9666 131.79 20.9666C131.918 20.9666 132.109 20.9029 132.3 20.9029C133.065 20.7754 134.213 20.4566 135.552 20.0103C136.891 19.5002 138.421 18.7988 140.079 17.9062C141.737 17.0136 143.458 15.9297 145.307 14.782C146.263 14.2082 147.156 13.6981 148.049 13.188C148.495 12.933 148.941 12.678 149.388 12.4867C149.834 12.2316 150.28 12.0404 150.663 11.8491C152.321 10.9565 153.787 10.1276 155.126 9.49001C155.317 9.42625 155.445 9.29873 155.572 9.23497C155.7 9.17121 155.891 9.10745 156.019 9.04369C156.337 8.91617 156.592 8.78866 156.847 8.66114C157.358 8.4061 157.804 8.21482 158.186 8.08731C158.951 7.83227 159.334 7.64099 159.334 7.64099C159.334 7.64099 158.951 7.89603 158.25 8.27858C157.931 8.46986 157.485 8.7249 157.039 9.04369C156.784 9.17121 156.529 9.36249 156.274 9.55377C156.146 9.61752 156.019 9.74504 155.827 9.8088C155.7 9.87256 155.572 10.0001 155.381 10.1276C154.807 10.5102 154.106 10.9565 153.468 11.4028C153.086 11.6578 152.767 11.8491 152.384 12.1041C152.002 12.3592 151.619 12.6142 151.237 12.8692C150.854 13.1243 150.408 13.3793 149.961 13.6343C149.515 13.8894 149.133 14.1444 148.686 14.3995C147.794 14.9095 146.901 15.4834 145.945 16.0572C144.096 17.2049 142.247 18.225 140.525 19.0539C138.804 19.8827 137.146 20.4566 135.679 20.7754C134.277 21.0942 133.065 21.2217 132.236 21.2854C132.045 21.2854 131.854 21.2854 131.726 21.2854C131.599 21.2854 131.408 21.2854 131.344 21.2854C131.216 21.0942 131.089 21.0942 131.089 21.0942Z" fill="#84663E"/>
<path d="M0 10.9565C0 10.9565 1.53022 19.1814 12.0505 10.8927C12.0505 10.8927 2.16781 2.54027 0 10.9565ZM2.42285 10.8927C2.42285 10.7014 2.61412 10.5102 2.8054 10.5102C2.99668 10.5102 3.18796 10.7014 3.18796 10.8927C3.18796 11.084 2.99668 11.2753 2.8054 11.2753C2.61412 11.2753 2.42285 11.084 2.42285 10.8927ZM9.43635 10.8927C9.43635 10.8927 8.735 13.3793 3.95307 10.8927C3.95307 10.8927 8.47996 8.34235 9.43635 10.8927Z" fill="#84663E"/>
<path d="M12.8793 9.74506C13.5169 9.74506 13.9632 10.2551 13.9632 10.829C13.9632 11.4028 13.4532 11.9129 12.8793 11.9129C12.2417 11.9129 11.7954 11.4028 11.7954 10.829C11.7317 10.2551 12.2417 9.74506 12.8793 9.74506Z" fill="#84663E"/>
<path d="M21.3593 9.74506C21.9969 9.74506 22.4432 10.2551 22.4432 10.829C22.4432 11.4028 21.9331 11.9129 21.3593 11.9129C20.7217 11.9129 20.2754 11.4028 20.2754 10.829C20.2754 10.1914 20.7855 9.74506 21.3593 9.74506Z" fill="#84663E"/>
<path d="M17.1512 7.95984C17.1512 7.95984 13.3257 10.829 13.3895 10.829C13.3257 10.829 17.1512 13.6982 17.1512 13.6982C17.5976 12.7418 20.913 10.829 20.913 10.829C20.9768 10.7652 17.5976 8.91623 17.1512 7.95984Z" fill="#84663E"/>
<path d="M116.169 10.829C123.055 16.1847 124.011 10.829 124.011 10.829C122.609 5.40944 116.169 10.829 116.169 10.829ZM122.162 11.084C122.035 11.084 121.907 10.9565 121.907 10.829C121.907 10.7014 122.035 10.5739 122.162 10.5739C122.29 10.5739 122.417 10.7014 122.417 10.829C122.417 11.0202 122.354 11.1478 122.162 11.084ZM121.461 10.8927C118.337 12.4867 117.891 10.8927 117.891 10.8927C118.528 9.23499 121.461 10.8927 121.461 10.8927Z" fill="#84663E"/>
<path d="M115.659 10.1276C115.277 10.1276 114.958 10.4464 114.958 10.829C114.958 11.2115 115.277 11.5303 115.659 11.5303C116.042 11.5303 116.361 11.2115 116.361 10.829C116.361 10.4464 116.042 10.1276 115.659 10.1276Z" fill="#84663E"/>
<path d="M114.894 10.4464H21.3594V11.2115H114.894V10.4464Z" fill="#84663E"/>
<path d="M275.886 10.8927C286.406 19.1176 287.936 10.9565 287.936 10.9565C285.832 2.54027 275.886 10.8927 275.886 10.8927ZM285.131 11.2753C284.939 11.2753 284.748 11.084 284.748 10.8927C284.748 10.7014 284.939 10.5102 285.131 10.5102C285.322 10.5102 285.513 10.7014 285.513 10.8927C285.577 11.084 285.386 11.2753 285.131 11.2753ZM284.047 10.8927C279.201 13.3156 278.563 10.8927 278.563 10.8927C279.52 8.34235 284.047 10.8927 284.047 10.8927Z" fill="#84663E"/>
<path d="M275.121 9.74512C274.483 9.74512 274.037 10.2552 274.037 10.829C274.037 11.4029 274.547 11.9129 275.121 11.9129C275.758 11.9129 276.204 11.4029 276.204 10.829C276.204 10.2552 275.758 9.74512 275.121 9.74512Z" fill="#84663E"/>
<path d="M266.577 9.74512C265.939 9.74512 265.493 10.2552 265.493 10.829C265.493 11.4029 266.003 11.9129 266.577 11.9129C267.214 11.9129 267.661 11.4029 267.661 10.829C267.724 10.1914 267.214 9.74512 266.577 9.74512Z" fill="#84663E"/>
<path d="M270.849 7.95984C270.849 7.95984 274.674 10.829 274.611 10.829C274.674 10.829 270.849 13.6982 270.849 13.6982C270.403 12.7418 267.087 10.829 267.087 10.829C267.023 10.7652 270.403 8.91623 270.849 7.95984Z" fill="#84663E"/>
<path d="M163.925 10.8927C163.925 10.8927 164.945 16.2485 171.767 10.8927C171.831 10.829 165.327 5.40943 163.925 10.8927ZM165.519 10.829C165.519 10.7014 165.646 10.5739 165.774 10.5739C165.901 10.5739 166.029 10.7014 166.029 10.829C166.029 10.9565 165.901 11.084 165.774 11.084C165.646 11.1478 165.519 11.0202 165.519 10.829ZM170.109 10.829C170.109 10.829 169.663 12.4229 166.539 10.829C166.539 10.8927 169.472 9.23498 170.109 10.829Z" fill="#84663E"/>
<path d="M172.341 10.1276C172.723 10.1276 173.042 10.4464 173.042 10.829C173.042 11.2115 172.723 11.5303 172.341 11.5303C171.958 11.5303 171.64 11.2115 171.64 10.829C171.576 10.4464 171.958 10.1276 172.341 10.1276Z" fill="#84663E"/>
<path d="M266.577 10.4464H173.042V11.2115H266.577V10.4464Z" fill="#84663E"/>
</svg>
