<svg width="288" height="24" viewBox="0 0 288 24" fill="none" xmlns="http://www.w3.org/2000/svg">
<g clip-path="url(#clip0_41_178)">
<path d="M141.737 7.39602C141.737 7.39602 141.609 7.33226 141.418 7.14098C141.163 6.94971 140.844 6.75843 140.398 6.43963C139.505 5.80204 138.102 4.90941 136.253 3.88927C135.297 3.3792 134.277 2.86912 133.065 2.35905C132.492 2.10401 131.854 1.91274 131.216 1.6577C130.579 1.46642 129.877 1.27514 129.112 1.08387C128.411 0.892589 127.646 0.765071 126.817 0.701312C126.052 0.573794 125.223 0.573794 124.394 0.510035C124.203 0.510035 123.948 0.510035 123.757 0.510035C123.565 0.510035 123.31 0.510035 123.119 0.510035C122.928 0.510035 122.673 0.510035 122.481 0.573794C122.29 0.573794 122.035 0.637553 121.844 0.637553C120.951 0.701312 120.058 0.82883 119.102 1.02011C118.209 1.21139 117.253 1.46642 116.36 1.78522C115.468 2.10401 114.511 2.48657 113.683 2.99664C113.236 3.25168 112.854 3.50671 112.407 3.82551C112.025 4.14431 111.642 4.4631 111.26 4.84566C110.558 5.54701 109.921 6.43963 109.474 7.39602C109.028 8.35241 108.773 9.37255 108.646 10.4565C108.646 10.584 108.646 10.7115 108.646 10.839C108.646 10.9665 108.646 11.0941 108.646 11.2216V11.4128C108.646 11.4766 108.646 11.5404 108.646 11.6041C108.646 11.7316 108.646 11.8592 108.646 11.9867C108.709 12.4968 108.837 13.0706 108.964 13.5807C109.156 14.0907 109.347 14.6008 109.602 15.1109C109.857 15.6209 110.24 16.0673 110.558 16.5136C110.941 16.9599 111.323 17.3424 111.77 17.725C112.216 18.1076 112.726 18.4263 113.236 18.7451C114.256 19.3827 115.404 19.8928 116.552 20.2754C117.699 20.6579 118.975 20.913 120.25 21.0405C121.525 21.168 122.8 21.168 124.075 20.9767C125.35 20.8492 126.626 20.5304 127.901 20.1478C130.451 19.3827 132.874 18.1713 135.297 16.7686C137.72 15.4297 140.143 13.8995 142.629 12.433C143.267 12.0504 143.904 11.7316 144.478 11.3491C145.116 10.9665 145.69 10.6477 146.327 10.2652C147.539 9.56383 148.75 8.86248 150.025 8.16113C152.448 6.75843 154.935 5.41949 157.421 4.33558C158.697 3.76175 159.972 3.25168 161.247 2.86912C162.522 2.42281 163.861 2.10401 165.2 1.84898C166.539 1.59394 167.878 1.46642 169.217 1.53018C169.408 1.53018 169.536 1.53018 169.727 1.53018C169.918 1.53018 170.046 1.53018 170.237 1.59394H170.492H170.619H170.747C170.938 1.59394 171.066 1.6577 171.257 1.6577L171.512 1.72146C171.576 1.72146 171.703 1.72146 171.767 1.78522C171.958 1.78522 172.086 1.84898 172.277 1.84898C172.596 1.91274 172.915 1.97649 173.234 2.10401C173.552 2.16777 173.871 2.29529 174.19 2.42281L174.445 2.48657C174.509 2.48657 174.573 2.55033 174.7 2.55033C174.828 2.61409 175.019 2.67785 175.146 2.7416C175.274 2.80536 175.465 2.86912 175.593 2.93288C175.72 2.99664 175.911 3.0604 176.039 3.12416C176.167 3.18792 176.294 3.31544 176.422 3.3792L176.613 3.50671L176.74 3.57047C176.804 3.57047 176.804 3.63423 176.868 3.63423C176.995 3.69799 177.123 3.82551 177.25 3.88927C177.314 3.95303 177.378 3.95303 177.442 4.01679L177.633 4.14431C177.76 4.27182 177.888 4.33558 178.016 4.4631C178.143 4.59062 178.207 4.71814 178.334 4.7819L178.526 4.97317C178.589 5.03693 178.653 5.10069 178.653 5.16445C178.781 5.29197 178.844 5.41949 178.972 5.54701C179.036 5.67452 179.163 5.80204 179.227 5.92956L179.354 6.12084C179.418 6.1846 179.418 6.24836 179.482 6.31212C179.546 6.43963 179.61 6.56715 179.737 6.69467C179.801 6.82219 179.865 6.94971 179.928 7.14098L180.056 7.33226C180.056 7.39602 180.12 7.45978 180.12 7.52354C180.183 7.65106 180.247 7.77858 180.311 7.96985C180.375 8.09737 180.375 8.28865 180.438 8.41617L180.502 8.60744C180.502 8.6712 180.566 8.73496 180.566 8.79872C180.566 8.92624 180.63 9.11752 180.63 9.24504C180.63 9.37255 180.693 9.56383 180.693 9.69135V9.88263C180.693 9.94639 180.693 10.0101 180.693 10.0739C180.693 10.2014 180.693 10.3927 180.693 10.5202C180.693 10.6477 180.693 10.839 180.693 10.9665C180.693 11.0941 180.693 11.2853 180.693 11.4128C180.693 11.5404 180.693 11.7316 180.693 11.8592C180.693 11.9867 180.693 12.1142 180.63 12.3055V12.4968V12.6243V12.7518C180.63 12.8793 180.566 13.0068 180.566 13.1981C180.12 15.4297 179.036 17.47 177.505 18.9364C176.74 19.6378 175.911 20.2754 175.083 20.8492C174.891 20.9767 174.636 21.1042 174.445 21.2318C174.254 21.3593 173.999 21.4868 173.807 21.6143C173.361 21.8693 172.915 22.0606 172.468 22.2519C171.576 22.6345 170.683 22.9532 169.791 23.1445C169.599 23.2083 169.344 23.272 169.153 23.272C168.962 23.3358 168.707 23.3358 168.515 23.3996C168.324 23.4633 168.069 23.4633 167.878 23.5271C167.687 23.5271 167.432 23.5908 167.24 23.5908C167.049 23.5908 166.794 23.5908 166.603 23.6546C166.475 23.6546 166.411 23.6546 166.284 23.6546C166.156 23.6546 166.093 23.6546 165.965 23.6546C165.774 23.6546 165.519 23.6546 165.327 23.6546H165.2H165.072C164.945 23.6546 164.881 23.6546 164.754 23.6546C164.626 23.6546 164.562 23.6546 164.435 23.6546H164.307H164.18C163.989 23.6546 163.797 23.5908 163.606 23.5908C163.415 23.5908 163.223 23.5271 163.032 23.5271C162.841 23.5271 162.65 23.4633 162.458 23.4633C160.992 23.2083 159.589 22.762 158.441 22.2519C157.23 21.7418 156.21 21.168 155.317 20.6579C153.532 19.5103 152.321 18.4263 151.492 17.6612C151.109 17.2787 150.79 16.9599 150.599 16.7686C150.79 16.9599 151.109 17.2787 151.492 17.5975C152.321 18.2988 153.596 19.3827 155.381 20.4666C156.274 20.9767 157.358 21.5505 158.505 21.9969C159.717 22.4432 161.056 22.8257 162.522 23.0808C162.713 23.0808 162.905 23.1445 163.096 23.1445C163.287 23.1445 163.478 23.2083 163.67 23.2083C163.861 23.2083 164.052 23.2083 164.244 23.272H164.371H164.499C164.626 23.272 164.69 23.272 164.817 23.272C164.945 23.272 165.009 23.272 165.136 23.272H165.264H165.391C165.583 23.272 165.774 23.272 166.029 23.272C166.156 23.272 166.22 23.272 166.348 23.272C166.475 23.272 166.539 23.272 166.666 23.272C166.858 23.272 167.113 23.272 167.304 23.2083C167.495 23.2083 167.75 23.1445 167.942 23.1445C168.133 23.0808 168.388 23.0808 168.579 23.017C168.77 23.017 169.025 22.9533 169.217 22.8895C169.408 22.8257 169.663 22.8257 169.854 22.762C170.683 22.5707 171.576 22.2519 172.405 21.8693C174.062 21.1042 175.72 20.0203 177.123 18.5539C177.314 18.3626 177.442 18.1713 177.633 17.98C177.697 17.8525 177.76 17.7888 177.888 17.6612C177.952 17.5337 178.016 17.47 178.079 17.3424L178.207 17.2149C178.271 17.1512 178.271 17.0874 178.334 17.0874C178.398 16.9599 178.462 16.8961 178.526 16.7686C178.589 16.6411 178.653 16.5773 178.717 16.4498C178.781 16.3223 178.844 16.2585 178.908 16.131C179.036 15.876 179.163 15.6847 179.227 15.4297C179.291 15.3022 179.354 15.1746 179.354 15.0471C179.418 14.9196 179.418 14.7921 179.482 14.6646L179.546 14.4733L179.61 14.282C179.673 14.1545 179.673 14.027 179.737 13.8995C179.801 13.7719 179.801 13.6444 179.801 13.5169C179.801 13.3894 179.865 13.2619 179.865 13.1343C179.865 13.0068 179.928 12.8793 179.928 12.7518V12.6243V12.4968V12.3055C179.928 12.178 179.928 12.0504 179.992 11.9229C179.992 11.7954 179.992 11.6679 179.992 11.5404C179.992 11.4128 179.992 11.2853 179.992 11.1578C179.992 11.0303 179.992 10.9028 179.992 10.7753C179.992 10.6477 179.992 10.5202 179.928 10.3927C179.928 10.3289 179.928 10.2652 179.928 10.2014V10.0101C179.928 9.88263 179.865 9.75511 179.865 9.62759C179.865 9.50007 179.801 9.37255 179.801 9.24504C179.801 9.18128 179.801 9.11752 179.737 9.05376L179.673 8.86248C179.61 8.73496 179.61 8.60744 179.546 8.47993C179.482 8.35241 179.418 8.22489 179.418 8.09737C179.418 8.03361 179.354 7.96985 179.354 7.90609L179.291 7.71482C179.227 7.5873 179.163 7.45978 179.099 7.33226C179.036 7.20474 178.972 7.07722 178.908 6.94971C178.844 6.88595 178.844 6.82219 178.781 6.75843L178.653 6.56715C178.589 6.43963 178.526 6.31212 178.398 6.24836C178.334 6.12084 178.207 6.05708 178.143 5.92956C178.079 5.8658 178.079 5.80204 178.016 5.80204L177.888 5.67452C177.76 5.54701 177.697 5.48325 177.569 5.35573C177.442 5.29197 177.378 5.16445 177.25 5.10069L176.613 4.97317C176.549 4.90941 176.485 4.90941 176.422 4.84566C176.294 4.7819 176.167 4.65438 176.103 4.59062L176.039 4.52686L175.911 4.4631L175.72 4.33558C175.593 4.27182 175.465 4.20806 175.338 4.14431C175.21 4.08055 175.083 4.01679 174.955 3.95303C174.828 3.88927 174.7 3.82551 174.573 3.76175C174.445 3.69799 174.318 3.63423 174.19 3.57047C174.126 3.57047 174.062 3.50671 173.999 3.50671L173.807 3.44295C173.552 3.3792 173.234 3.25168 172.979 3.18792C172.66 3.12416 172.405 3.0604 172.086 2.99664C171.958 2.99664 171.767 2.93288 171.64 2.93288C171.576 2.93288 171.512 2.93288 171.385 2.86912H171.13C171.002 2.86912 170.811 2.80536 170.683 2.80536H170.556H170.428H170.173C170.046 2.80536 169.854 2.80536 169.727 2.80536C169.599 2.80536 169.408 2.80536 169.281 2.80536C168.069 2.80536 166.794 2.93288 165.519 3.18792C164.244 3.44295 163.032 3.76175 161.757 4.20806C160.546 4.65438 159.27 5.10069 158.059 5.67452C155.636 6.75843 153.213 8.09737 150.79 9.50007C149.579 10.2014 148.368 10.9028 147.156 11.6041C146.519 11.9867 145.945 12.3055 145.307 12.688C144.67 13.0706 144.032 13.3894 143.458 13.7719C140.971 15.1746 138.549 16.7049 136.126 18.1076C133.639 19.5103 131.089 20.7217 128.411 21.5505C127.072 21.9331 125.733 22.2519 124.33 22.3794C122.928 22.5069 121.589 22.5069 120.25 22.3794C118.911 22.2519 117.572 21.9331 116.297 21.4868C115.022 21.0405 113.874 20.5304 112.726 19.8291C112.152 19.5103 111.642 19.1277 111.132 18.6814C110.622 18.2988 110.176 17.7888 109.793 17.3424C109.411 16.8324 109.028 16.3223 108.709 15.8122C108.391 15.2384 108.136 14.6646 108.008 14.0907C107.817 13.5169 107.753 12.8793 107.689 12.3055C107.689 12.178 107.689 11.9867 107.689 11.8592C107.689 11.7954 107.689 11.7316 107.689 11.6041V11.3491C107.689 11.2216 107.689 11.0303 107.689 10.9028C107.689 10.7753 107.689 10.584 107.689 10.4565C107.817 9.24504 108.136 8.16113 108.646 7.07723C109.156 6.05708 109.857 5.16445 110.622 4.33558C111.005 3.95303 111.451 3.57047 111.897 3.25168C112.344 2.93288 112.79 2.67785 113.236 2.35905C114.193 1.84898 115.149 1.46642 116.105 1.14763C117.062 0.82883 118.018 0.573794 118.975 0.446275C119.931 0.254998 120.824 0.191239 121.78 0.12748C122.035 0.12748 122.226 0.0637207 122.481 0.0637207C122.736 0.0637207 122.928 0.0637207 123.183 0.0637207C123.374 0.0637207 123.629 0.0637207 123.82 0.0637207C124.012 0.0637207 124.267 0.0637207 124.458 0.0637207C125.35 0.12748 126.179 0.191239 126.944 0.318757C127.773 0.446276 128.538 0.573794 129.24 0.765071C130.005 0.956349 130.706 1.14763 131.344 1.40266C131.981 1.6577 132.619 1.91274 133.257 2.16777C134.468 2.67785 135.488 3.25168 136.381 3.76175C138.23 4.84566 139.569 5.80204 140.461 6.43963C140.908 6.75843 141.227 7.01347 141.482 7.20474C141.609 7.33226 141.737 7.39602 141.737 7.39602Z" fill="url(#paint0_linear_41_178)"/>
<path d="M127.773 16.0672C127.773 16.0672 127.901 16.0672 128.092 16.0034C128.22 16.0034 128.347 15.9397 128.475 15.9397C128.602 15.9397 128.793 15.8759 128.985 15.8759C129.75 15.7484 130.897 15.4296 132.236 14.9833C133.575 14.4732 135.105 13.7719 136.763 12.8792C138.421 11.9866 140.142 10.9027 141.991 9.75504C142.948 9.1812 143.84 8.67113 144.733 8.16106C145.179 7.90602 145.626 7.65098 146.072 7.45971C146.518 7.20467 146.965 7.01339 147.347 6.82212C149.005 5.92949 150.471 5.10062 151.81 4.46303C152.002 4.39927 152.129 4.27175 152.257 4.20799C152.384 4.14423 152.575 4.08047 152.703 4.01671C153.022 3.8892 153.277 3.76168 153.532 3.63416C154.042 3.37912 154.488 3.18785 154.871 3.06033C155.636 2.80529 156.018 2.61401 156.018 2.61401C156.018 2.61401 155.636 2.86905 154.935 3.2516C154.616 3.44288 154.169 3.69792 153.723 4.01671C153.468 4.14423 153.213 4.33551 152.958 4.52679C152.831 4.59055 152.703 4.71807 152.512 4.78182C152.384 4.84558 152.257 4.9731 152.065 5.10062C151.492 5.48317 150.79 5.92949 150.153 6.3758C149.77 6.63084 149.451 6.82212 149.069 7.07715C148.686 7.33219 148.304 7.58723 147.921 7.84226C147.539 8.0973 147.092 8.35233 146.646 8.60737C146.2 8.86241 145.817 9.11744 145.371 9.37248C144.478 9.88256 143.585 10.4564 142.629 11.0302C140.78 12.1779 138.931 13.198 137.21 14.0269C135.488 14.8558 133.83 15.4296 132.364 15.7484C130.961 16.0672 129.75 16.1947 128.921 16.2585C128.73 16.2585 128.538 16.2585 128.411 16.2585C128.283 16.2585 128.092 16.2585 128.028 16.2585C127.901 16.0672 127.773 16.0672 127.773 16.0672Z" fill="url(#paint1_linear_41_178)"/>
<path d="M131.089 20.5942C131.089 20.5942 131.216 20.5942 131.408 20.5304C131.535 20.5304 131.663 20.4666 131.79 20.4666C131.918 20.4666 132.109 20.4029 132.3 20.4029C133.065 20.2754 134.213 19.9566 135.552 19.5103C136.891 19.0002 138.421 18.2988 140.079 17.4062C141.737 16.5136 143.458 15.4297 145.307 14.282C146.263 13.7082 147.156 13.1981 148.049 12.688C148.495 12.433 148.941 12.178 149.388 11.9867C149.834 11.7316 150.28 11.5404 150.663 11.3491C152.321 10.4565 153.787 9.6276 155.126 8.99001C155.317 8.92625 155.445 8.79873 155.572 8.73497C155.7 8.67121 155.891 8.60745 156.019 8.54369C156.337 8.41617 156.592 8.28866 156.847 8.16114C157.358 7.9061 157.804 7.71482 158.186 7.58731C158.951 7.33227 159.334 7.14099 159.334 7.14099C159.334 7.14099 158.951 7.39603 158.25 7.77858C157.931 7.96986 157.485 8.2249 157.039 8.54369C156.784 8.67121 156.529 8.86249 156.274 9.05377C156.146 9.11752 156.019 9.24504 155.827 9.3088C155.7 9.37256 155.572 9.50008 155.381 9.6276C154.807 10.0102 154.106 10.4565 153.468 10.9028C153.086 11.1578 152.767 11.3491 152.384 11.6041C152.002 11.8592 151.619 12.1142 151.237 12.3692C150.854 12.6243 150.408 12.8793 149.961 13.1343C149.515 13.3894 149.133 13.6444 148.686 13.8995C147.794 14.4095 146.901 14.9834 145.945 15.5572C144.096 16.7049 142.247 17.725 140.525 18.5539C138.804 19.3827 137.146 19.9566 135.679 20.2754C134.277 20.5942 133.065 20.7217 132.236 20.7854C132.045 20.7854 131.854 20.7854 131.726 20.7854C131.599 20.7854 131.408 20.7854 131.344 20.7854C131.216 20.5942 131.089 20.5942 131.089 20.5942Z" fill="url(#paint2_linear_41_178)"/>
<path d="M0 10.4565C0 10.4565 1.53022 18.6814 12.0505 10.3927C12.0505 10.3927 2.16781 2.04027 0 10.4565ZM2.42285 10.3927C2.42285 10.2014 2.61412 10.0102 2.8054 10.0102C2.99668 10.0102 3.18796 10.2014 3.18796 10.3927C3.18796 10.584 2.99668 10.7753 2.8054 10.7753C2.61412 10.7753 2.42285 10.584 2.42285 10.3927ZM9.43635 10.3927C9.43635 10.3927 8.735 12.8793 3.95307 10.3927C3.95307 10.3927 8.47996 7.84235 9.43635 10.3927Z" fill="url(#paint3_linear_41_178)"/>
<path d="M12.8793 9.245C13.5169 9.245 13.9632 9.75507 13.9632 10.3289C13.9632 10.9027 13.4532 11.4128 12.8793 11.4128C12.2417 11.4128 11.7954 10.9027 11.7954 10.3289C11.7317 9.75507 12.2417 9.245 12.8793 9.245Z" fill="url(#paint4_linear_41_178)"/>
<path d="M21.3593 9.245C21.9969 9.245 22.4432 9.75507 22.4432 10.3289C22.4432 10.9027 21.9331 11.4128 21.3593 11.4128C20.7217 11.4128 20.2754 10.9027 20.2754 10.3289C20.2754 9.69131 20.7855 9.245 21.3593 9.245Z" fill="url(#paint5_linear_41_178)"/>
<path d="M17.1512 7.45984C17.1512 7.45984 13.3257 10.329 13.3895 10.329C13.3257 10.329 17.1512 13.1982 17.1512 13.1982C17.5976 12.2418 20.913 10.329 20.913 10.329C20.9768 10.2652 17.5976 8.41623 17.1512 7.45984Z" fill="url(#paint6_linear_41_178)"/>
<path d="M116.169 10.329C123.055 15.6847 124.011 10.329 124.011 10.329C122.609 4.90944 116.169 10.329 116.169 10.329ZM122.162 10.584C122.035 10.584 121.907 10.4565 121.907 10.329C121.907 10.2014 122.035 10.0739 122.162 10.0739C122.29 10.0739 122.417 10.2014 122.417 10.329C122.417 10.5202 122.354 10.6478 122.162 10.584ZM121.461 10.3927C118.337 11.9867 117.891 10.3927 117.891 10.3927C118.528 8.73499 121.461 10.3927 121.461 10.3927Z" fill="url(#paint7_linear_41_178)"/>
<path d="M115.659 9.62756C115.277 9.62756 114.958 9.94636 114.958 10.3289C114.958 10.7115 115.277 11.0303 115.659 11.0303C116.042 11.0303 116.361 10.7115 116.361 10.3289C116.361 9.94636 116.042 9.62756 115.659 9.62756Z" fill="url(#paint8_linear_41_178)"/>
<path d="M114.894 9.94641H21.3594V10.7115H114.894V9.94641Z" fill="url(#paint9_linear_41_178)"/>
<path d="M275.886 10.3927C286.406 18.6176 287.936 10.4565 287.936 10.4565C285.832 2.04027 275.886 10.3927 275.886 10.3927ZM285.131 10.7753C284.939 10.7753 284.748 10.584 284.748 10.3927C284.748 10.2014 284.939 10.0102 285.131 10.0102C285.322 10.0102 285.513 10.2014 285.513 10.3927C285.577 10.584 285.386 10.7753 285.131 10.7753ZM284.047 10.3927C279.201 12.8156 278.563 10.3927 278.563 10.3927C279.52 7.84235 284.047 10.3927 284.047 10.3927Z" fill="url(#paint10_linear_41_178)"/>
<path d="M275.121 9.24512C274.483 9.24512 274.037 9.75519 274.037 10.329C274.037 10.9029 274.547 11.4129 275.121 11.4129C275.758 11.4129 276.204 10.9029 276.204 10.329C276.204 9.75519 275.758 9.24512 275.121 9.24512Z" fill="url(#paint11_linear_41_178)"/>
<path d="M266.577 9.24512C265.939 9.24512 265.493 9.75519 265.493 10.329C265.493 10.9029 266.003 11.4129 266.577 11.4129C267.214 11.4129 267.661 10.9029 267.661 10.329C267.724 9.69143 267.214 9.24512 266.577 9.24512Z" fill="url(#paint12_linear_41_178)"/>
<path d="M270.849 7.45984C270.849 7.45984 274.674 10.329 274.611 10.329C274.674 10.329 270.849 13.1982 270.849 13.1982C270.403 12.2418 267.087 10.329 267.087 10.329C267.023 10.2652 270.403 8.41623 270.849 7.45984Z" fill="url(#paint13_linear_41_178)"/>
<path d="M163.925 10.3928C163.925 10.3928 164.945 15.7485 171.767 10.3928C171.831 10.329 165.327 4.90949 163.925 10.3928ZM165.519 10.329C165.519 10.2015 165.646 10.074 165.774 10.074C165.901 10.074 166.029 10.2015 166.029 10.329C166.029 10.4565 165.901 10.5841 165.774 10.5841C165.646 10.6478 165.519 10.5203 165.519 10.329ZM170.109 10.329C170.109 10.329 169.663 11.923 166.539 10.329C166.539 10.3928 169.472 8.73504 170.109 10.329Z" fill="url(#paint14_linear_41_178)"/>
<path d="M172.341 9.62756C172.723 9.62756 173.042 9.94636 173.042 10.3289C173.042 10.7115 172.723 11.0303 172.341 11.0303C171.958 11.0303 171.64 10.7115 171.64 10.3289C171.576 9.94636 171.958 9.62756 172.341 9.62756Z" fill="url(#paint15_linear_41_178)"/>
<path d="M266.577 9.94641H173.042V10.7115H266.577V9.94641Z" fill="url(#paint16_linear_41_178)"/>
</g>
<defs>
<linearGradient id="paint0_linear_41_178" x1="144.191" y1="0.0637207" x2="144.191" y2="23.6546" gradientUnits="userSpaceOnUse">
<stop stop-color="#FFEACB"/>
<stop offset="0.484848" stop-color="#E9C99F"/>
<stop offset="1" stop-color="#C9AD88"/>
</linearGradient>
<linearGradient id="paint1_linear_41_178" x1="141.896" y1="2.61401" x2="141.896" y2="16.2585" gradientUnits="userSpaceOnUse">
<stop stop-color="#FFEACB"/>
<stop offset="0.484848" stop-color="#E9C99F"/>
<stop offset="1" stop-color="#C9AD88"/>
</linearGradient>
<linearGradient id="paint2_linear_41_178" x1="145.211" y1="7.14099" x2="145.211" y2="20.7854" gradientUnits="userSpaceOnUse">
<stop stop-color="#FFEACB"/>
<stop offset="0.484848" stop-color="#E9C99F"/>
<stop offset="1" stop-color="#C9AD88"/>
</linearGradient>
<linearGradient id="paint3_linear_41_178" x1="6.02524" y1="6.69934" x2="6.02524" y2="14.0932" gradientUnits="userSpaceOnUse">
<stop stop-color="#FFEACB"/>
<stop offset="0.484848" stop-color="#E9C99F"/>
<stop offset="1" stop-color="#C9AD88"/>
</linearGradient>
<linearGradient id="paint4_linear_41_178" x1="12.8766" y1="9.245" x2="12.8766" y2="11.4128" gradientUnits="userSpaceOnUse">
<stop stop-color="#FFEACB"/>
<stop offset="0.484848" stop-color="#E9C99F"/>
<stop offset="1" stop-color="#C9AD88"/>
</linearGradient>
<linearGradient id="paint5_linear_41_178" x1="21.3593" y1="9.245" x2="21.3593" y2="11.4128" gradientUnits="userSpaceOnUse">
<stop stop-color="#FFEACB"/>
<stop offset="0.484848" stop-color="#E9C99F"/>
<stop offset="1" stop-color="#C9AD88"/>
</linearGradient>
<linearGradient id="paint6_linear_41_178" x1="17.1513" y1="7.45984" x2="17.1513" y2="13.1982" gradientUnits="userSpaceOnUse">
<stop stop-color="#FFEACB"/>
<stop offset="0.484848" stop-color="#E9C99F"/>
<stop offset="1" stop-color="#C9AD88"/>
</linearGradient>
<linearGradient id="paint7_linear_41_178" x1="120.09" y1="7.92029" x2="120.09" y2="12.7093" gradientUnits="userSpaceOnUse">
<stop stop-color="#FFEACB"/>
<stop offset="0.484848" stop-color="#E9C99F"/>
<stop offset="1" stop-color="#C9AD88"/>
</linearGradient>
<linearGradient id="paint8_linear_41_178" x1="115.659" y1="9.62756" x2="115.659" y2="11.0303" gradientUnits="userSpaceOnUse">
<stop stop-color="#FFEACB"/>
<stop offset="0.484848" stop-color="#E9C99F"/>
<stop offset="1" stop-color="#C9AD88"/>
</linearGradient>
<linearGradient id="paint9_linear_41_178" x1="68.1267" y1="9.94641" x2="68.1267" y2="10.7115" gradientUnits="userSpaceOnUse">
<stop stop-color="#FFEACB"/>
<stop offset="0.484848" stop-color="#E9C99F"/>
<stop offset="1" stop-color="#C9AD88"/>
</linearGradient>
<linearGradient id="paint10_linear_41_178" x1="281.911" y1="6.69934" x2="281.911" y2="14.0648" gradientUnits="userSpaceOnUse">
<stop stop-color="#FFEACB"/>
<stop offset="0.484848" stop-color="#E9C99F"/>
<stop offset="1" stop-color="#C9AD88"/>
</linearGradient>
<linearGradient id="paint11_linear_41_178" x1="275.121" y1="9.24512" x2="275.121" y2="11.4129" gradientUnits="userSpaceOnUse">
<stop stop-color="#FFEACB"/>
<stop offset="0.484848" stop-color="#E9C99F"/>
<stop offset="1" stop-color="#C9AD88"/>
</linearGradient>
<linearGradient id="paint12_linear_41_178" x1="266.58" y1="9.24512" x2="266.58" y2="11.4129" gradientUnits="userSpaceOnUse">
<stop stop-color="#FFEACB"/>
<stop offset="0.484848" stop-color="#E9C99F"/>
<stop offset="1" stop-color="#C9AD88"/>
</linearGradient>
<linearGradient id="paint13_linear_41_178" x1="270.849" y1="7.45984" x2="270.849" y2="13.1982" gradientUnits="userSpaceOnUse">
<stop stop-color="#FFEACB"/>
<stop offset="0.484848" stop-color="#E9C99F"/>
<stop offset="1" stop-color="#C9AD88"/>
</linearGradient>
<linearGradient id="paint14_linear_41_178" x1="167.846" y1="7.94153" x2="167.846" y2="12.7731" gradientUnits="userSpaceOnUse">
<stop stop-color="#FFEACB"/>
<stop offset="0.484848" stop-color="#E9C99F"/>
<stop offset="1" stop-color="#C9AD88"/>
</linearGradient>
<linearGradient id="paint15_linear_41_178" x1="172.337" y1="9.62756" x2="172.337" y2="11.0303" gradientUnits="userSpaceOnUse">
<stop stop-color="#FFEACB"/>
<stop offset="0.484848" stop-color="#E9C99F"/>
<stop offset="1" stop-color="#C9AD88"/>
</linearGradient>
<linearGradient id="paint16_linear_41_178" x1="219.809" y1="9.94641" x2="219.809" y2="10.7115" gradientUnits="userSpaceOnUse">
<stop stop-color="#FFEACB"/>
<stop offset="0.484848" stop-color="#E9C99F"/>
<stop offset="1" stop-color="#C9AD88"/>
</linearGradient>
<clipPath id="clip0_41_178">
<rect width="288" height="23.7822" fill="white"/>
</clipPath>
</defs>
</svg>
