<svg width="81" height="44" viewBox="0 0 81 44" fill="none" xmlns="http://www.w3.org/2000/svg">
<g id="Frame" clip-path="url(#clip0_13_275)">
<g id="Group">
<g id="Group_2">
<path id="Vector" d="M40.4999 44C40.4999 44 40.4125 43.9417 40.2667 43.8542C40.1792 43.8251 40.0917 43.7376 39.9751 43.6793C39.8585 43.5918 39.7418 43.5043 39.6252 43.3877C39.3628 43.1253 39.1003 42.7754 38.8962 42.338C38.6921 41.8715 38.5172 41.2883 38.4589 40.6468C38.3131 39.3347 38.488 37.7018 39.0129 35.894C39.2753 34.9901 39.6252 34.0279 40.0917 33.0656C40.325 32.5991 40.5874 32.1034 40.9082 31.6369C41.2289 31.1703 41.5496 30.6747 41.8995 30.1498C43.2408 28.1379 44.7571 25.951 46.594 23.8224C47.0606 23.2976 47.5563 22.7727 48.0811 22.2479C48.606 21.7522 49.1308 21.2565 49.714 20.7608C50.2972 20.2943 50.9095 19.8277 51.551 19.4195C52.1924 19.0113 52.8631 18.6322 53.592 18.3115C54.2919 17.9908 55.05 17.7283 55.8081 17.5242C56.1871 17.4076 56.5954 17.3493 56.9744 17.2618C57.1785 17.2326 57.3826 17.2035 57.5868 17.1743C57.6742 17.1452 57.7909 17.1452 57.8783 17.1452L58.1991 17.116C59.8611 16.9702 61.5523 16.9702 63.2143 17.2618C64.0308 17.4076 64.8472 17.6409 65.6345 17.9616C66.3926 18.2823 67.0924 18.7197 67.6756 19.2446C68.2587 19.7694 68.6961 20.4401 68.9002 21.1399C69.1043 21.8397 69.046 22.5978 68.7544 23.2684C68.6378 23.5017 68.5211 23.7058 68.3754 23.9391C68.2296 24.1432 68.0255 24.3473 67.8505 24.5222C67.4423 24.8721 67.0049 25.1929 66.4801 25.4261C65.4595 25.9218 64.3223 26.2134 63.156 26.3301C62.5728 26.3884 61.9897 26.4175 61.4065 26.4175C60.8233 26.4175 60.2402 26.3884 59.657 26.3301C58.5198 26.2134 57.4118 25.951 56.3329 25.6011C55.2541 25.2512 54.2044 24.8138 53.1838 24.3473C52.1633 23.8807 51.1719 23.3851 50.2097 22.8602C48.2852 21.8397 46.4774 20.7316 44.7279 19.6528C43.0076 18.5739 41.3747 17.5242 39.8001 16.5037C38.2547 15.4831 36.7677 14.5209 35.3972 13.617C32.6272 11.8092 30.2362 10.2638 28.2534 9.03913C26.329 7.72701 23.9671 6.12329 21.0804 4.49042C19.6225 3.67399 18.048 2.85755 16.3276 2.09944C15.4529 1.72038 14.549 1.37048 13.5867 1.04973C12.6245 0.758151 11.6331 0.495726 10.5543 0.320775C9.41709 0.174983 8.30907 0.116667 7.1719 0.204142C6.03472 0.291617 4.86838 0.554042 3.76037 1.04973C3.61457 1.10805 3.49794 1.16637 3.35215 1.25384C3.23552 1.31216 3.11888 1.39964 2.97309 1.45795C2.8273 1.54543 2.71066 1.6329 2.59403 1.72038C2.4774 1.80785 2.33161 1.86617 2.21497 1.95364C2.09834 2.04112 1.9817 2.15775 1.86507 2.24523L1.69012 2.39102C1.6318 2.42018 1.57349 2.4785 1.48601 2.53681C1.36938 2.65345 1.25274 2.77008 1.13611 2.88671C1.07779 2.94503 1.01948 3.00335 0.961161 3.06166L0.815369 3.26577L0.727894 3.35325L0.669577 3.46988L0.523785 3.70315L0.407152 3.93641C0.377993 3.96557 0.377993 4.02389 0.348835 4.05305L0.290518 4.16968C0.144726 4.49042 0.0864094 4.84032 0.057251 5.19023L0.0864094 5.45265V5.71508C0.0864094 5.80255 0.0864094 5.89003 0.115568 5.9775C0.115568 6.06498 0.144726 6.15245 0.144726 6.23993C0.203043 6.58983 0.290518 6.88141 0.407152 7.20215C0.640419 7.81448 0.990319 8.36849 1.36938 8.89334C1.74844 9.41819 2.18581 9.88472 2.68151 10.2929C3.14804 10.7303 3.67289 11.1094 4.19774 11.4884C4.46017 11.6634 4.75175 11.8383 5.04333 11.9841L5.24744 12.1008L5.48071 12.2174C5.6265 12.2757 5.77229 12.3632 5.91809 12.4215C6.50125 12.6839 7.11358 12.9172 7.75506 13.1213C8.39655 13.3254 9.00888 13.5004 9.67952 13.617C10.9625 13.8794 12.3038 14.0252 13.6159 14.1127C15.5695 14.2002 17.494 14.1127 19.3601 13.9669C21.2262 13.7919 23.0632 13.5295 24.8419 13.2088C25.7166 13.063 26.6205 12.888 27.4661 12.7131C27.6994 12.6548 27.9035 12.6256 28.1076 12.5965L28.4575 12.509L28.7783 12.4215C29.2156 12.3049 29.653 12.1591 30.0612 12.0133C30.9068 11.7217 31.6941 11.401 32.4814 11.0802C33.2687 10.7595 34.0268 10.4096 34.7849 10.0888C37.7882 8.74755 40.5583 7.3771 43.2117 6.15245C45.8359 4.9278 48.3144 3.84894 50.6179 2.94503C52.9214 2.04112 55.0208 1.34132 56.9161 0.874785C58.8114 0.40825 60.5026 0.204142 61.873 0.291617C63.2435 0.349934 64.2932 0.699834 64.9055 1.04973C64.993 1.07889 65.0513 1.13721 65.1388 1.16637C65.1971 1.19553 65.2554 1.25384 65.3137 1.283C65.372 1.31216 65.4304 1.34132 65.4595 1.39964C65.5178 1.42879 65.547 1.45795 65.5761 1.48711C65.7219 1.60374 65.8094 1.66206 65.8094 1.66206C65.8094 1.66206 65.7511 1.60374 65.6053 1.48711C65.5761 1.45795 65.5178 1.42879 65.4887 1.37048C65.4304 1.34132 65.4012 1.31216 65.3429 1.25384C65.2846 1.22469 65.2262 1.16637 65.1679 1.10805C65.1096 1.04973 65.0221 1.02058 64.9638 0.96226C64.3515 0.583201 63.3018 0.174983 61.9022 0.0291915C60.5026 -0.1166 58.7531 3.30769e-05 56.7995 0.379092C54.8459 0.758151 52.659 1.37048 50.2972 2.18691C47.9353 3.00335 45.3985 3.99473 42.716 5.13191C40.0334 6.26909 37.205 7.55205 34.2017 8.80587C33.4436 9.12661 32.6855 9.44735 31.9274 9.73893C31.1692 10.0305 30.382 10.3221 29.5947 10.5845C29.1865 10.7012 28.8074 10.8178 28.3992 10.9344L28.1076 10.9927L27.816 11.0511C27.6119 11.0802 27.3787 11.1385 27.1746 11.1677C26.329 11.3135 25.4542 11.4593 24.5795 11.6051C22.83 11.8967 21.0513 12.1299 19.2435 12.2757C17.4356 12.4215 15.5987 12.509 13.7617 12.4215C12.5079 12.3632 11.2832 12.2174 10.0877 11.9841C9.50457 11.8675 8.9214 11.7217 8.33823 11.5468C7.78422 11.3718 7.23021 11.1677 6.70536 10.9344L6.3263 10.7595L6.1222 10.672L5.94725 10.5845C5.68482 10.4387 5.45155 10.2929 5.21829 10.1472C4.75175 9.82641 4.28522 9.50567 3.877 9.12661C3.06056 8.39765 2.36076 7.55205 1.9817 6.61899C1.89423 6.38572 1.80675 6.15245 1.7776 5.94834C1.74844 5.89003 1.74844 5.83171 1.74844 5.77339C1.74844 5.71508 1.71928 5.65676 1.71928 5.59844V5.42349V5.24854C1.74844 5.04443 1.7776 4.81117 1.83591 4.63622L1.86507 4.54874C1.86507 4.51958 1.89423 4.49042 1.89423 4.46127V4.37379L1.9817 4.228L2.01086 4.16968L2.06918 4.08221L2.15665 3.93641L2.27329 3.81978C2.33161 3.73231 2.41908 3.64483 2.50656 3.55736C2.53571 3.5282 2.59403 3.46988 2.65235 3.44072L2.79814 3.32409C2.88561 3.23661 3.00225 3.14914 3.08972 3.09082C3.20636 3.00335 3.29383 2.94503 3.41047 2.85755C3.5271 2.79924 3.61457 2.71176 3.73121 2.65345C3.84784 2.59513 3.96447 2.53681 4.05195 2.4785C4.16858 2.39102 4.28522 2.3327 4.40185 2.27439C5.30576 1.83701 6.29715 1.57459 7.28853 1.45795C8.27992 1.34132 9.30046 1.39964 10.2918 1.51627C11.2832 1.66206 12.2455 1.86617 13.1494 2.1286C14.0824 2.39102 14.9572 2.71176 15.8319 3.03251C17.5523 3.70315 19.1268 4.46127 20.5848 5.19023C23.5006 6.70646 25.9499 8.16438 27.9327 9.38903C29.8571 10.7012 32.1606 12.3632 34.8432 14.2876C36.1845 15.2499 37.6133 16.2704 39.1295 17.3493C40.6457 18.4281 42.2494 19.5361 43.9406 20.6733C45.6318 21.8105 47.4396 22.9477 49.3932 24.0557C50.3555 24.6097 51.376 25.1346 52.4257 25.6594C53.4754 26.1551 54.5834 26.6216 55.7206 27.0299C56.8869 27.4089 58.0824 27.7297 59.3946 27.8754C60.0361 27.9338 60.6484 27.9921 61.2899 27.9921C61.9313 27.9921 62.5728 27.9629 63.2435 27.9046C64.5556 27.7588 65.8969 27.4672 67.1507 26.8549C67.763 26.5342 68.3754 26.1551 68.9002 25.6594C69.1626 25.397 69.4251 25.1346 69.6292 24.843C69.8333 24.5514 70.0374 24.2306 70.2123 23.8807C70.6789 22.8894 70.7663 21.6939 70.4456 20.6733C70.154 19.6236 69.5125 18.7197 68.7544 18.0491C67.9963 17.3493 67.1215 16.8536 66.1885 16.4745C65.2846 16.0955 64.3515 15.8622 63.4184 15.7164C61.5523 15.4248 59.7153 15.454 57.9366 15.6581L57.6159 15.6872C57.4993 15.6872 57.3826 15.7164 57.2952 15.7456C57.0619 15.7747 56.8578 15.8039 56.6245 15.8622C56.1871 15.9497 55.7498 16.0371 55.3124 16.1829C54.4668 16.4454 53.6504 16.7369 52.8631 17.116C52.105 17.4951 51.376 17.9033 50.6762 18.3698C50.0056 18.8363 49.3641 19.332 48.7518 19.8569C48.1686 20.3817 47.6146 20.9066 47.0897 21.4606C46.5649 22.0146 46.0692 22.5686 45.6027 23.1226C43.7657 25.3678 42.3369 27.6422 41.0539 29.7124C40.7332 30.2373 40.4416 30.733 40.15 31.2287C39.8293 31.7244 39.596 32.2492 39.3628 32.7741C38.9254 33.7946 38.6046 34.786 38.4005 35.7191C37.9632 37.6143 37.8757 39.3055 38.1089 40.6468C38.2256 41.3175 38.4297 41.9006 38.6921 42.3672C38.9545 42.8337 39.2461 43.1836 39.5377 43.4169C39.6835 43.5335 39.8001 43.621 39.9168 43.7085C40.0334 43.7959 40.1209 43.8542 40.2084 43.8834C40.4125 43.9709 40.4999 44 40.4999 44Z" fill="url(#paint0_linear_13_275)"/>
</g>
<g id="Group_3">
<path id="Vector_2" d="M40.5292 44C40.5292 44 40.6166 43.9709 40.7916 43.8834C40.8791 43.8542 40.9665 43.7959 41.0832 43.7084C41.1998 43.6501 41.3164 43.5335 41.4622 43.4169C41.7247 43.1836 42.0454 42.8337 42.3078 42.3671C42.5703 41.9006 42.7744 41.3174 42.891 40.6468C43.1243 39.3055 43.0368 37.6143 42.5994 35.719C42.3661 34.786 42.0746 33.7946 41.6372 32.774C41.4039 32.2784 41.1706 31.7535 40.8499 31.2286C40.5583 30.733 40.2376 30.2373 39.946 29.7124C38.6922 27.6422 37.2634 25.3678 35.3973 23.1226C34.9308 22.5686 34.4351 22.0146 33.9102 21.4606C33.3854 20.9066 32.8313 20.3817 32.2482 19.8569C31.6359 19.332 31.0235 18.8363 30.3237 18.3698C29.6531 17.9033 28.9241 17.4951 28.1368 17.116C27.3787 16.7369 26.5623 16.4162 25.6875 16.1829C25.2502 16.0663 24.8128 15.9497 24.3754 15.8622C24.1421 15.833 23.938 15.8039 23.7048 15.7455C23.5881 15.7164 23.4715 15.7164 23.384 15.6872L23.0633 15.6581C21.2846 15.454 19.4476 15.4248 17.5815 15.7455C16.6484 15.8913 15.7154 16.1246 14.8115 16.5037C13.9076 16.8827 13.0328 17.3784 12.2455 18.0782C11.4874 18.778 10.8459 19.6528 10.5543 20.7025C10.2336 21.7522 10.3211 22.9185 10.7876 23.9099C10.9334 24.2598 11.1375 24.5805 11.3708 24.8721C11.604 25.1637 11.8373 25.4261 12.0997 25.6886C12.6246 26.1842 13.2369 26.5633 13.8492 26.884C15.103 27.4964 16.4443 27.788 17.7565 27.9338C18.3979 27.9921 19.0686 28.0212 19.7101 28.0212C20.3516 28.0212 20.993 27.9629 21.6054 27.9046C22.8883 27.7588 24.113 27.4381 25.2793 27.059C26.4457 26.6508 27.5245 26.1842 28.5742 25.6886C29.6239 25.1929 30.6445 24.6389 31.6067 24.0848C33.5603 22.9768 35.339 21.8396 37.0593 20.7025C38.7797 19.5653 40.3542 18.4573 41.8704 17.3784C43.3867 16.2996 44.8154 15.279 46.1567 14.3168C48.8393 12.3923 51.1428 10.7303 53.0673 9.41818C55.05 8.19353 57.4993 6.73561 60.4152 5.21937C61.8731 4.46125 63.4768 3.73229 65.168 3.06165C66.0136 2.74091 66.9175 2.42016 67.8506 2.15774C68.7836 1.89531 69.7459 1.69121 70.7081 1.54541C71.6995 1.39962 72.6909 1.37046 73.7114 1.4871C74.7028 1.60373 75.6942 1.837 76.5981 2.30353C76.7147 2.36185 76.8314 2.42016 76.948 2.47848C77.0646 2.5368 77.1813 2.59512 77.2687 2.65343C77.3854 2.71175 77.4728 2.79922 77.5895 2.85754C77.7061 2.91586 77.7936 3.00333 77.9102 3.09081C77.9977 3.17828 78.1143 3.26576 78.2018 3.32407L78.3476 3.44071C78.4059 3.46987 78.4351 3.52818 78.4934 3.55734C78.5809 3.64482 78.6683 3.73229 78.7267 3.81977L78.8433 3.9364L78.9308 4.08219L78.9891 4.14051L79.0182 4.19883L79.1057 4.37378L79.164 4.51957C79.164 4.54873 79.1932 4.57789 79.1932 4.60704L79.2223 4.69452C79.3098 4.89863 79.339 5.10274 79.339 5.30685V5.48179V5.65675C79.339 5.71506 79.339 5.77338 79.3098 5.8317C79.3098 5.89001 79.3098 5.94833 79.2807 6.00665C79.2515 6.23991 79.164 6.47318 79.0765 6.67729C78.6975 7.5812 77.9977 8.42679 77.1813 9.18491C76.773 9.56397 76.3065 9.88471 75.84 10.2055C75.6067 10.3512 75.3443 10.497 75.111 10.6428L74.9361 10.7303L74.7319 10.8178L74.3529 10.9927C73.828 11.226 73.274 11.4301 72.72 11.6051C72.166 11.78 71.5828 11.9258 70.9705 12.0424C69.775 12.3049 68.5504 12.4215 67.2966 12.4798C65.4596 12.5673 63.6226 12.509 61.8148 12.334C60.007 12.1882 58.2283 11.9258 56.4788 11.6634C55.604 11.5176 54.7293 11.3718 53.8837 11.226C53.6796 11.1968 53.4463 11.1385 53.2422 11.1094L52.9506 11.051L52.659 10.9927C52.2508 10.9053 51.8718 10.7886 51.4636 10.6428C50.6763 10.3804 49.889 10.0888 49.1309 9.79724C48.3728 9.50565 47.5855 9.18491 46.8565 8.86417C43.8532 7.61036 41.0249 6.32739 38.3423 5.19021C35.6597 4.05303 33.1229 3.03249 30.7611 2.24521C28.3701 1.39962 26.1832 0.787295 24.2296 0.408236C22.276 0.0291774 20.5265 -0.0874562 19.1269 0.0583357C17.7273 0.204128 16.6776 0.612345 16.0653 0.991404C15.9778 1.04972 15.9195 1.07888 15.8612 1.1372C15.8028 1.19551 15.7445 1.22467 15.6862 1.28299C15.6279 1.31215 15.5696 1.37046 15.5404 1.39962C15.5113 1.42878 15.4529 1.45794 15.4238 1.51625C15.278 1.63289 15.2197 1.69121 15.2197 1.69121C15.2197 1.69121 15.3072 1.63289 15.4529 1.51625C15.4529 1.45794 15.4821 1.42878 15.5404 1.39962C15.5987 1.37046 15.6279 1.3413 15.6862 1.28299C15.7445 1.25383 15.8028 1.19551 15.8612 1.16635C15.9195 1.1372 16.007 1.07888 16.0944 1.04972C16.7359 0.69982 17.7565 0.379078 19.1269 0.291603C20.4974 0.233286 22.1885 0.437395 24.0838 0.874771C25.9791 1.3413 28.1077 2.04111 30.382 2.94502C32.6856 3.84893 35.1349 4.92779 37.7883 6.15244C40.4125 7.37709 43.2117 8.71838 46.215 10.0888C46.9732 10.4387 47.7313 10.7595 48.5186 11.0802C49.3058 11.4009 50.0931 11.7217 50.9387 12.0133C51.3469 12.1591 51.7843 12.2757 52.2217 12.4215L52.5424 12.509L52.8923 12.5964C53.1256 12.6548 53.3297 12.6839 53.5338 12.7131C54.4086 12.888 55.2833 13.0338 56.1581 13.2088C57.9367 13.5295 59.7445 13.7919 61.6398 13.9669C63.506 14.1418 65.4304 14.2293 67.384 14.1127C68.6962 14.0252 70.0374 13.9086 71.3204 13.617C71.9619 13.5004 72.6034 13.3254 73.2449 13.1213C73.8864 12.9172 74.4987 12.6839 75.0819 12.4215C75.2276 12.3632 75.3734 12.2757 75.5192 12.2174L75.7525 12.1007L75.9566 11.9841C76.2482 11.8383 76.5106 11.6634 76.8022 11.4884C77.3562 11.1385 77.8519 10.7303 78.3184 10.2929C78.785 9.85555 79.2223 9.38902 79.6306 8.89333C80.0096 8.36847 80.3595 7.81447 80.5928 7.20214C80.7094 6.8814 80.7969 6.56066 80.8552 6.23991C80.8844 6.15244 80.8844 6.06496 80.8844 5.97749C80.8844 5.89001 80.9135 5.80254 80.9135 5.71506V5.45264L80.8844 5.19021C80.8552 4.84031 80.7677 4.49041 80.6511 4.16967L80.5928 4.05303C80.5636 4.02388 80.5636 3.96556 80.5345 3.9364L80.4178 3.70313L80.272 3.46987L80.2137 3.35323L80.1263 3.26576L79.9805 3.06165C79.9221 3.00333 79.8638 2.94502 79.8055 2.8867C79.6889 2.77007 79.5722 2.65343 79.4556 2.5368C79.3973 2.47848 79.339 2.42016 79.2807 2.39101L79.1057 2.24521C78.9891 2.15774 78.8724 2.07026 78.7558 1.95363C78.6392 1.86616 78.4934 1.77868 78.3767 1.69121C78.2601 1.60373 78.1143 1.51625 77.9977 1.45794C77.8519 1.39962 77.7353 1.31215 77.5895 1.25383C77.4437 1.19551 77.327 1.10804 77.1813 1.04972C76.1024 0.554028 74.9069 0.291603 73.7697 0.204128C72.6325 0.116653 71.5245 0.204128 70.4748 0.379078C69.4251 0.554028 68.4046 0.816454 67.4424 1.10804C66.4801 1.42878 65.5762 1.77868 64.7015 2.15774C62.9811 2.91586 61.3774 3.73229 59.9487 4.54873C57.062 6.1816 54.671 7.78531 52.7757 9.09743C50.7929 10.3221 48.3728 11.8675 45.6319 13.6753C44.2614 14.5792 42.7744 15.5414 41.229 16.562C39.6836 17.5825 38.0507 18.6322 36.3012 19.7111C34.5809 20.7899 32.7439 21.8688 30.8194 22.9185C29.8572 23.4434 28.8658 23.9391 27.8453 24.4056C26.8247 24.8721 25.775 25.3095 24.6962 25.6594C23.6173 26.0093 22.5093 26.2717 21.3721 26.3884C20.7889 26.4467 20.2058 26.4758 19.6226 26.4758C19.0394 26.4758 18.4563 26.4467 17.8731 26.3884C16.7068 26.2426 15.5696 25.9801 14.549 25.4844C14.0533 25.222 13.5868 24.9304 13.1786 24.5805C12.9745 24.4056 12.7995 24.2015 12.6537 23.9974C12.508 23.7933 12.3622 23.56 12.2747 23.3267C11.9831 22.6561 11.8956 21.898 12.1289 21.1982C12.333 20.4984 12.7704 19.8569 13.3535 19.3029C13.9367 18.778 14.6365 18.3406 15.3946 18.0199C16.1528 17.6992 16.9692 17.4659 17.8148 17.3201C19.4768 17.0285 21.1972 17.0285 22.83 17.1743L23.1508 17.2035C23.2674 17.2035 23.3549 17.2326 23.4423 17.2326C23.6465 17.2618 23.8506 17.2909 24.0547 17.3201C24.4337 17.4076 24.8419 17.4659 25.221 17.5825C25.9791 17.7866 26.7372 18.0491 27.437 18.3698C28.1368 18.6905 28.8075 19.0696 29.4781 19.4778C30.1196 19.886 30.7319 20.3526 31.3151 20.8191C31.8983 21.2856 32.4231 21.7813 32.948 22.3062C33.4728 22.831 33.9685 23.3267 34.4351 23.8807C36.3012 26.0093 37.7883 28.1962 39.1296 30.2081C39.4795 30.7038 39.8002 31.1995 40.1209 31.6952C40.4417 32.1617 40.7041 32.6283 40.9374 33.1239C41.4039 34.0862 41.7538 35.0484 42.0162 35.9523C42.5411 37.7601 42.716 39.393 42.5702 40.7051C42.4828 41.3758 42.337 41.9298 42.1329 42.3963C41.9288 42.8628 41.6372 43.2127 41.4039 43.446C41.2581 43.5626 41.1706 43.6793 41.054 43.7376C40.9374 43.8251 40.8499 43.8834 40.7624 43.9125C40.5875 43.9709 40.5292 44 40.5292 44Z" fill="url(#paint1_linear_13_275)"/>
</g>
</g>
</g>
<defs>
<linearGradient id="paint0_linear_13_275" x1="35.3468" y1="-0.0315552" x2="35.3468" y2="44" gradientUnits="userSpaceOnUse">
<stop stop-color="#FFEACB"/>
<stop offset="0.484848" stop-color="#E9C99F"/>
<stop offset="1" stop-color="#C9AD88"/>
</linearGradient>
<linearGradient id="paint1_linear_13_275" x1="45.6385" y1="-0.00241089" x2="45.6385" y2="44" gradientUnits="userSpaceOnUse">
<stop stop-color="#FFEACB"/>
<stop offset="0.484848" stop-color="#E9C99F"/>
<stop offset="1" stop-color="#C9AD88"/>
</linearGradient>
<clipPath id="clip0_13_275">
<rect width="80.827" height="44" fill="white" transform="translate(0.0864258)"/>
</clipPath>
</defs>
</svg>
