<svg width="194" height="27" viewBox="0 0 194 27" fill="none" xmlns="http://www.w3.org/2000/svg">
<path d="M23.1141 25.52C23.1941 25.52 23.2341 25.6 23.2341 25.76C23.2341 25.92 23.1941 26 23.1141 26H17.9941C17.5407 26 16.6474 24.8267 15.3141 22.48C14.0074 20.1067 12.5941 17.1467 11.0741 13.6C10.3541 13.76 9.59406 13.84 8.79406 13.84C8.66073 13.84 8.03406 13.8 6.91406 13.72V22.76C6.91406 23.5867 6.99406 24.1867 7.15406 24.56C7.31406 24.9333 7.62073 25.1867 8.07406 25.32C8.5274 25.4533 9.2474 25.52 10.2341 25.52C10.3141 25.52 10.3541 25.6 10.3541 25.76C10.3541 25.92 10.3141 26 10.2341 26C9.38073 26 8.7274 25.9867 8.27406 25.96L5.43406 25.92L2.67406 25.96C2.1674 25.9867 1.4874 26 0.634063 26C0.580729 26 0.554063 25.92 0.554063 25.76C0.554063 25.6 0.580729 25.52 0.634063 25.52C1.62073 25.52 2.34073 25.4533 2.79406 25.32C3.2474 25.1867 3.55406 24.9333 3.71406 24.56C3.90073 24.16 3.99406 23.56 3.99406 22.76V4.24C3.99406 3.44 3.91406 2.85333 3.75406 2.48C3.59406 2.10667 3.2874 1.85333 2.83406 1.72C2.38073 1.56 1.67406 1.48 0.714063 1.48C0.634063 1.48 0.594063 1.4 0.594063 1.24C0.594063 1.08 0.634063 1 0.714063 1L2.67406 1.04C3.79406 1.09333 4.71406 1.12 5.43406 1.12C5.99406 1.12 6.5274 1.10667 7.03406 1.08C7.5674 1.05333 8.03406 1.02667 8.43406 1C9.47406 0.919999 10.4074 0.879999 11.2341 0.879999C13.3941 0.879999 15.0607 1.36 16.2341 2.32C17.4341 3.25333 18.0341 4.52 18.0341 6.12C18.0341 7.53333 17.6207 8.84 16.7941 10.04C15.9674 11.2133 14.8607 12.1333 13.4741 12.8C14.9674 15.9733 16.2474 18.4667 17.3141 20.28C18.3807 22.0933 19.3674 23.4267 20.2741 24.28C21.2074 25.1067 22.1541 25.52 23.1141 25.52ZM6.91406 12.76C7.66073 12.84 8.4474 12.88 9.27406 12.88C11.3541 12.88 12.8207 12.44 13.6741 11.56C14.5541 10.6533 14.9941 9.25333 14.9941 7.36C14.9941 5.22667 14.5407 3.72 13.6341 2.84C12.7541 1.96 11.4474 1.52 9.71406 1.52C8.67406 1.52 7.94073 1.72 7.51406 2.12C7.11406 2.49333 6.91406 3.22667 6.91406 4.32V12.76ZM50.6909 25.52C50.7709 25.52 50.8109 25.6 50.8109 25.76C50.8109 25.92 50.7709 26 50.6909 26H45.2109C44.5709 26 43.3576 24.92 41.5709 22.76C39.8109 20.5733 37.6509 17.5333 35.0909 13.64C34.3709 13.7733 33.7043 13.84 33.0909 13.84C32.9576 13.84 32.3309 13.8 31.2109 13.72V22.76C31.2109 23.5867 31.2909 24.1867 31.4509 24.56C31.6109 24.9333 31.9176 25.1867 32.3709 25.32C32.8243 25.4533 33.5443 25.52 34.5309 25.52C34.6109 25.52 34.6509 25.6 34.6509 25.76C34.6509 25.92 34.6109 26 34.5309 26C33.6776 26 33.0243 25.9867 32.5709 25.96L29.7309 25.92L26.9709 25.96C26.4643 25.9867 25.7843 26 24.9309 26C24.8776 26 24.8509 25.92 24.8509 25.76C24.8509 25.6 24.8776 25.52 24.9309 25.52C25.9176 25.52 26.6376 25.4533 27.0909 25.32C27.5443 25.1867 27.8509 24.9333 28.0109 24.56C28.1976 24.16 28.2909 23.56 28.2909 22.76V4.24C28.2909 3.44 28.2109 2.85333 28.0509 2.48C27.8909 2.10667 27.5843 1.85333 27.1309 1.72C26.6776 1.56 25.9709 1.48 25.0109 1.48C24.9309 1.48 24.8909 1.4 24.8909 1.24C24.8909 1.08 24.9309 1 25.0109 1L26.9709 1.04C28.0909 1.09333 29.0109 1.12 29.7309 1.12C30.2909 1.12 30.8243 1.10667 31.3309 1.08C31.8376 1.05333 32.2776 1.02667 32.6509 1C33.6376 0.919999 34.5576 0.879999 35.4109 0.879999C37.5443 0.879999 39.1976 1.36 40.3709 2.32C41.5709 3.25333 42.1709 4.52 42.1709 6.12C42.1709 7.56 41.7443 8.86667 40.8909 10.04C40.0643 11.2133 38.9576 12.1333 37.5709 12.8C39.8109 16.0267 41.6776 18.5467 43.1709 20.36C44.6909 22.1733 46.0376 23.4933 47.2109 24.32C48.4109 25.12 49.5709 25.52 50.6909 25.52ZM31.2109 12.76C31.9576 12.84 32.7443 12.88 33.5709 12.88C35.5709 12.88 36.9976 12.44 37.8509 11.56C38.7043 10.6533 39.1309 9.25333 39.1309 7.36C39.1309 5.25333 38.6909 3.76 37.8109 2.88C36.9309 1.97333 35.6643 1.52 34.0109 1.52C32.9709 1.52 32.2376 1.72 31.8109 2.12C31.4109 2.49333 31.2109 3.22667 31.2109 4.32V12.76ZM63.0853 26.48C60.6053 26.48 58.392 25.9067 56.4453 24.76C54.5253 23.5867 53.032 22.0133 51.9653 20.04C50.9253 18.04 50.4053 15.8667 50.4053 13.52C50.4053 10.7733 51.0986 8.42667 52.4853 6.48C53.872 4.50667 55.6453 3.02667 57.8053 2.04C59.992 1.05333 62.2186 0.559999 64.4853 0.559999C67.0186 0.559999 69.2453 1.16 71.1653 2.36C73.0853 3.53333 74.552 5.09333 75.5653 7.04C76.6053 8.98667 77.1253 11.0533 77.1253 13.24C77.1253 15.6667 76.4853 17.8933 75.2053 19.92C73.9253 21.9467 72.2053 23.5467 70.0453 24.72C67.912 25.8933 65.592 26.48 63.0853 26.48ZM64.4853 25.6C66.2453 25.6 67.8186 25.16 69.2053 24.28C70.6186 23.4 71.7253 22.12 72.5253 20.44C73.352 18.7333 73.7653 16.7067 73.7653 14.36C73.7653 11.88 73.312 9.66667 72.4053 7.72C71.5253 5.77333 70.2586 4.25333 68.6053 3.16C66.952 2.06666 65.032 1.52 62.8453 1.52C59.992 1.52 57.7653 2.46667 56.1653 4.36C54.5653 6.22667 53.7653 8.81333 53.7653 12.12C53.7653 14.6267 54.2186 16.9067 55.1253 18.96C56.032 21.0133 57.2986 22.64 58.9253 23.84C60.552 25.0133 62.4053 25.6 64.4853 25.6ZM95.6303 0.559999C97.2303 0.559999 98.6036 0.679999 99.7503 0.919999C100.924 1.13333 102.07 1.50667 103.19 2.04C103.377 2.14667 103.484 2.25333 103.51 2.36C103.564 2.44 103.604 2.64 103.63 2.96L104.15 7.84C104.15 7.92 104.07 7.97333 103.91 8C103.777 8.02667 103.697 7.98667 103.67 7.88C102.364 3.42667 99.6036 1.2 95.3903 1.2C93.2303 1.2 91.3236 1.69333 89.6703 2.68C88.017 3.66667 86.7236 5.08 85.7903 6.92C84.8836 8.73333 84.4303 10.8533 84.4303 13.28C84.4303 15.6267 84.9236 17.76 85.9103 19.68C86.9236 21.6 88.2836 23.1067 89.9903 24.2C91.697 25.2933 93.5636 25.84 95.5903 25.84C97.697 25.84 99.417 25.32 100.75 24.28C102.11 23.2133 103.19 21.5733 103.99 19.36C104.017 19.28 104.097 19.2533 104.23 19.28C104.364 19.3067 104.43 19.3467 104.43 19.4L104.03 23.88C103.977 24.2 103.924 24.4133 103.87 24.52C103.844 24.6 103.737 24.6933 103.55 24.8C102.19 25.44 100.897 25.88 99.6703 26.12C98.4436 26.3867 97.0703 26.52 95.5503 26.52C92.7503 26.52 90.2436 25.9733 88.0303 24.88C85.8436 23.76 84.1236 22.2133 82.8703 20.24C81.6436 18.24 81.0303 15.96 81.0303 13.4C81.0303 10.8933 81.657 8.66667 82.9103 6.72C84.1636 4.77333 85.897 3.26667 88.1103 2.2C90.3503 1.10667 92.857 0.559999 95.6303 0.559999ZM121.093 26.48C118.613 26.48 116.4 25.9067 114.453 24.76C112.533 23.5867 111.04 22.0133 109.973 20.04C108.933 18.04 108.413 15.8667 108.413 13.52C108.413 10.7733 109.106 8.42667 110.493 6.48C111.88 4.50667 113.653 3.02667 115.813 2.04C118 1.05333 120.226 0.559999 122.493 0.559999C125.026 0.559999 127.253 1.16 129.173 2.36C131.093 3.53333 132.56 5.09333 133.573 7.04C134.613 8.98667 135.133 11.0533 135.133 13.24C135.133 15.6667 134.493 17.8933 133.213 19.92C131.933 21.9467 130.213 23.5467 128.053 24.72C125.92 25.8933 123.6 26.48 121.093 26.48ZM122.493 25.6C124.253 25.6 125.826 25.16 127.213 24.28C128.626 23.4 129.733 22.12 130.533 20.44C131.36 18.7333 131.773 16.7067 131.773 14.36C131.773 11.88 131.32 9.66667 130.413 7.72C129.533 5.77333 128.266 4.25333 126.613 3.16C124.96 2.06666 123.04 1.52 120.853 1.52C118 1.52 115.773 2.46667 114.173 4.36C112.573 6.22667 111.773 8.81333 111.773 12.12C111.773 14.6267 112.226 16.9067 113.133 18.96C114.04 21.0133 115.306 22.64 116.933 23.84C118.56 25.0133 120.413 25.6 122.493 25.6ZM153.638 0.559999C155.238 0.559999 156.611 0.679999 157.758 0.919999C158.931 1.13333 160.078 1.50667 161.198 2.04C161.385 2.14667 161.491 2.25333 161.518 2.36C161.571 2.44 161.611 2.64 161.638 2.96L162.158 7.84C162.158 7.92 162.078 7.97333 161.918 8C161.785 8.02667 161.705 7.98667 161.678 7.88C160.371 3.42667 157.611 1.2 153.398 1.2C151.238 1.2 149.331 1.69333 147.678 2.68C146.025 3.66667 144.731 5.08 143.798 6.92C142.891 8.73333 142.438 10.8533 142.438 13.28C142.438 15.6267 142.931 17.76 143.918 19.68C144.931 21.6 146.291 23.1067 147.998 24.2C149.705 25.2933 151.571 25.84 153.598 25.84C155.705 25.84 157.425 25.32 158.758 24.28C160.118 23.2133 161.198 21.5733 161.998 19.36C162.025 19.28 162.105 19.2533 162.238 19.28C162.371 19.3067 162.438 19.3467 162.438 19.4L162.038 23.88C161.985 24.2 161.931 24.4133 161.878 24.52C161.851 24.6 161.745 24.6933 161.558 24.8C160.198 25.44 158.905 25.88 157.678 26.12C156.451 26.3867 155.078 26.52 153.558 26.52C150.758 26.52 148.251 25.9733 146.038 24.88C143.851 23.76 142.131 22.2133 140.878 20.24C139.651 18.24 139.038 15.96 139.038 13.4C139.038 10.8933 139.665 8.66667 140.918 6.72C142.171 4.77333 143.905 3.26667 146.118 2.2C148.358 1.10667 150.865 0.559999 153.638 0.559999ZM179.101 26.48C176.621 26.48 174.408 25.9067 172.461 24.76C170.541 23.5867 169.048 22.0133 167.981 20.04C166.941 18.04 166.421 15.8667 166.421 13.52C166.421 10.7733 167.114 8.42667 168.501 6.48C169.888 4.50667 171.661 3.02667 173.821 2.04C176.008 1.05333 178.234 0.559999 180.501 0.559999C183.034 0.559999 185.261 1.16 187.181 2.36C189.101 3.53333 190.568 5.09333 191.581 7.04C192.621 8.98667 193.141 11.0533 193.141 13.24C193.141 15.6667 192.501 17.8933 191.221 19.92C189.941 21.9467 188.221 23.5467 186.061 24.72C183.928 25.8933 181.608 26.48 179.101 26.48ZM180.501 25.6C182.261 25.6 183.834 25.16 185.221 24.28C186.634 23.4 187.741 22.12 188.541 20.44C189.368 18.7333 189.781 16.7067 189.781 14.36C189.781 11.88 189.328 9.66667 188.421 7.72C187.541 5.77333 186.274 4.25333 184.621 3.16C182.968 2.06666 181.048 1.52 178.861 1.52C176.008 1.52 173.781 2.46667 172.181 4.36C170.581 6.22667 169.781 8.81333 169.781 12.12C169.781 14.6267 170.234 16.9067 171.141 18.96C172.048 21.0133 173.314 22.64 174.941 23.84C176.568 25.0133 178.421 25.6 180.501 25.6Z" fill="url(#paint0_linear_250_126)"/>
<defs>
<linearGradient id="paint0_linear_250_126" x1="97" y1="0" x2="97" y2="27" gradientUnits="userSpaceOnUse">
<stop stop-color="#FFEACB"/>
<stop offset="0.484848" stop-color="#E9C99F"/>
<stop offset="1" stop-color="#C9AD88"/>
</linearGradient>
</defs>
</svg>
