<svg width="251" height="50" viewBox="0 0 251 50" fill="none" xmlns="http://www.w3.org/2000/svg">
<path d="M27.225 28.46C27.315 28.46 27.36 28.55 27.36 28.73C27.36 28.91 27.315 29 27.225 29H21.465C20.955 29 19.95 27.68 18.45 25.04C16.98 22.37 15.39 19.04 13.68 15.05C12.87 15.23 12.015 15.32 11.115 15.32C10.965 15.32 10.26 15.275 9 15.185V25.355C9 26.285 9.09 26.96 9.27 27.38C9.45 27.8 9.795 28.085 10.305 28.235C10.815 28.385 11.625 28.46 12.735 28.46C12.825 28.46 12.87 28.55 12.87 28.73C12.87 28.91 12.825 29 12.735 29C11.775 29 11.04 28.985 10.53 28.955L7.335 28.91L4.23 28.955C3.66 28.985 2.895 29 1.935 29C1.875 29 1.845 28.91 1.845 28.73C1.845 28.55 1.875 28.46 1.935 28.46C3.045 28.46 3.855 28.385 4.365 28.235C4.875 28.085 5.22 27.8 5.4 27.38C5.61 26.93 5.715 26.255 5.715 25.355V4.52C5.715 3.62 5.625 2.96 5.445 2.54C5.265 2.12 4.92 1.835 4.41 1.685C3.9 1.505 3.105 1.415 2.025 1.415C1.935 1.415 1.89 1.325 1.89 1.145C1.89 0.965 1.935 0.875 2.025 0.875L4.23 0.919999C5.49 0.979999 6.525 1.01 7.335 1.01C7.965 1.01 8.565 0.994998 9.135 0.964999C9.735 0.934999 10.26 0.905 10.71 0.875C11.88 0.784999 12.93 0.739999 13.86 0.739999C16.29 0.739999 18.165 1.28 19.485 2.36C20.835 3.41 21.51 4.835 21.51 6.635C21.51 8.225 21.045 9.695 20.115 11.045C19.185 12.365 17.94 13.4 16.38 14.15C18.06 17.72 19.5 20.525 20.7 22.565C21.9 24.605 23.01 26.105 24.03 27.065C25.08 27.995 26.145 28.46 27.225 28.46ZM9 14.105C9.84 14.195 10.725 14.24 11.655 14.24C13.995 14.24 15.645 13.745 16.605 12.755C17.595 11.735 18.09 10.16 18.09 8.03C18.09 5.63 17.58 3.935 16.56 2.945C15.57 1.955 14.1 1.46 12.15 1.46C10.98 1.46 10.155 1.685 9.675 2.135C9.225 2.555 9 3.38 9 4.61V14.105ZM58.249 28.46C58.339 28.46 58.384 28.55 58.384 28.73C58.384 28.91 58.339 29 58.249 29H52.084C51.364 29 49.999 27.785 47.989 25.355C46.009 22.895 43.579 19.475 40.699 15.095C39.889 15.245 39.139 15.32 38.449 15.32C38.299 15.32 37.594 15.275 36.334 15.185V25.355C36.334 26.285 36.424 26.96 36.604 27.38C36.784 27.8 37.129 28.085 37.639 28.235C38.149 28.385 38.959 28.46 40.069 28.46C40.159 28.46 40.204 28.55 40.204 28.73C40.204 28.91 40.159 29 40.069 29C39.109 29 38.374 28.985 37.864 28.955L34.669 28.91L31.564 28.955C30.994 28.985 30.229 29 29.269 29C29.209 29 29.179 28.91 29.179 28.73C29.179 28.55 29.209 28.46 29.269 28.46C30.379 28.46 31.189 28.385 31.699 28.235C32.209 28.085 32.554 27.8 32.734 27.38C32.944 26.93 33.049 26.255 33.049 25.355V4.52C33.049 3.62 32.959 2.96 32.779 2.54C32.599 2.12 32.254 1.835 31.744 1.685C31.234 1.505 30.439 1.415 29.359 1.415C29.269 1.415 29.224 1.325 29.224 1.145C29.224 0.965 29.269 0.875 29.359 0.875L31.564 0.919999C32.824 0.979999 33.859 1.01 34.669 1.01C35.299 1.01 35.899 0.994998 36.469 0.964999C37.039 0.934999 37.534 0.905 37.954 0.875C39.064 0.784999 40.099 0.739999 41.059 0.739999C43.459 0.739999 45.319 1.28 46.639 2.36C47.989 3.41 48.664 4.835 48.664 6.635C48.664 8.255 48.184 9.725 47.224 11.045C46.294 12.365 45.049 13.4 43.489 14.15C46.009 17.78 48.109 20.615 49.789 22.655C51.499 24.695 53.014 26.18 54.334 27.11C55.684 28.01 56.989 28.46 58.249 28.46ZM36.334 14.105C37.174 14.195 38.059 14.24 38.989 14.24C41.239 14.24 42.844 13.745 43.804 12.755C44.764 11.735 45.244 10.16 45.244 8.03C45.244 5.66 44.749 3.98 43.759 2.99C42.769 1.97 41.344 1.46 39.484 1.46C38.314 1.46 37.489 1.685 37.009 2.135C36.559 2.555 36.334 3.38 36.334 4.61V14.105ZM72.1927 29.54C69.4027 29.54 66.9127 28.895 64.7227 27.605C62.5627 26.285 60.8827 24.515 59.6827 22.295C58.5127 20.045 57.9277 17.6 57.9277 14.96C57.9277 11.87 58.7077 9.23 60.2677 7.04C61.8277 4.82 63.8227 3.155 66.2527 2.045C68.7127 0.934998 71.2177 0.379998 73.7677 0.379998C76.6177 0.379998 79.1227 1.055 81.2827 2.405C83.4427 3.725 85.0927 5.48 86.2327 7.67C87.4027 9.86 87.9877 12.185 87.9877 14.645C87.9877 17.375 87.2677 19.88 85.8277 22.16C84.3877 24.44 82.4527 26.24 80.0227 27.56C77.6227 28.88 75.0127 29.54 72.1927 29.54ZM73.7677 28.55C75.7477 28.55 77.5177 28.055 79.0777 27.065C80.6677 26.075 81.9127 24.635 82.8127 22.745C83.7427 20.825 84.2077 18.545 84.2077 15.905C84.2077 13.115 83.6977 10.625 82.6777 8.435C81.6877 6.245 80.2627 4.535 78.4027 3.305C76.5427 2.075 74.3827 1.46 71.9227 1.46C68.7127 1.46 66.2077 2.525 64.4077 4.655C62.6077 6.755 61.7077 9.665 61.7077 13.385C61.7077 16.205 62.2177 18.77 63.2377 21.08C64.2577 23.39 65.6827 25.22 67.5127 26.57C69.3427 27.89 71.4277 28.55 73.7677 28.55ZM108.806 0.379998C110.606 0.379998 112.151 0.514998 113.441 0.784998C114.761 1.025 116.051 1.445 117.311 2.045C117.521 2.165 117.641 2.285 117.671 2.405C117.731 2.495 117.776 2.72 117.806 3.08L118.391 8.57C118.391 8.66 118.301 8.72 118.121 8.75C117.971 8.78 117.881 8.735 117.851 8.615C116.381 3.605 113.276 1.1 108.536 1.1C106.106 1.1 103.961 1.655 102.101 2.765C100.241 3.875 98.7858 5.465 97.7358 7.535C96.7158 9.575 96.2058 11.96 96.2058 14.69C96.2058 17.33 96.7608 19.73 97.8708 21.89C99.0108 24.05 100.541 25.745 102.461 26.975C104.381 28.205 106.481 28.82 108.761 28.82C111.131 28.82 113.066 28.235 114.566 27.065C116.096 25.865 117.311 24.02 118.211 21.53C118.241 21.44 118.331 21.41 118.481 21.44C118.631 21.47 118.706 21.515 118.706 21.575L118.256 26.615C118.196 26.975 118.136 27.215 118.076 27.335C118.046 27.425 117.926 27.53 117.716 27.65C116.186 28.37 114.731 28.865 113.351 29.135C111.971 29.435 110.426 29.585 108.716 29.585C105.566 29.585 102.746 28.97 100.256 27.74C97.7958 26.48 95.8608 24.74 94.4508 22.52C93.0708 20.27 92.3808 17.705 92.3808 14.825C92.3808 12.005 93.0858 9.5 94.4958 7.31C95.9058 5.12 97.8558 3.425 100.346 2.225C102.866 0.994998 105.686 0.379998 108.806 0.379998ZM137.451 29.54C134.661 29.54 132.171 28.895 129.981 27.605C127.821 26.285 126.141 24.515 124.941 22.295C123.771 20.045 123.186 17.6 123.186 14.96C123.186 11.87 123.966 9.23 125.526 7.04C127.086 4.82 129.081 3.155 131.511 2.045C133.971 0.934998 136.476 0.379998 139.026 0.379998C141.876 0.379998 144.381 1.055 146.541 2.405C148.701 3.725 150.351 5.48 151.491 7.67C152.661 9.86 153.246 12.185 153.246 14.645C153.246 17.375 152.526 19.88 151.086 22.16C149.646 24.44 147.711 26.24 145.281 27.56C142.881 28.88 140.271 29.54 137.451 29.54ZM139.026 28.55C141.006 28.55 142.776 28.055 144.336 27.065C145.926 26.075 147.171 24.635 148.071 22.745C149.001 20.825 149.466 18.545 149.466 15.905C149.466 13.115 148.956 10.625 147.936 8.435C146.946 6.245 145.521 4.535 143.661 3.305C141.801 2.075 139.641 1.46 137.181 1.46C133.971 1.46 131.466 2.525 129.666 4.655C127.866 6.755 126.966 9.665 126.966 13.385C126.966 16.205 127.476 18.77 128.496 21.08C129.516 23.39 130.941 25.22 132.771 26.57C134.601 27.89 136.686 28.55 139.026 28.55ZM174.065 0.379998C175.865 0.379998 177.41 0.514998 178.7 0.784998C180.02 1.025 181.31 1.445 182.57 2.045C182.78 2.165 182.9 2.285 182.93 2.405C182.99 2.495 183.035 2.72 183.065 3.08L183.65 8.57C183.65 8.66 183.56 8.72 183.38 8.75C183.23 8.78 183.14 8.735 183.11 8.615C181.64 3.605 178.535 1.1 173.795 1.1C171.365 1.1 169.22 1.655 167.36 2.765C165.5 3.875 164.045 5.465 162.995 7.535C161.975 9.575 161.465 11.96 161.465 14.69C161.465 17.33 162.02 19.73 163.13 21.89C164.27 24.05 165.8 25.745 167.72 26.975C169.64 28.205 171.74 28.82 174.02 28.82C176.39 28.82 178.325 28.235 179.825 27.065C181.355 25.865 182.57 24.02 183.47 21.53C183.5 21.44 183.59 21.41 183.74 21.44C183.89 21.47 183.965 21.515 183.965 21.575L183.515 26.615C183.455 26.975 183.395 27.215 183.335 27.335C183.305 27.425 183.185 27.53 182.975 27.65C181.445 28.37 179.99 28.865 178.61 29.135C177.23 29.435 175.685 29.585 173.975 29.585C170.825 29.585 168.005 28.97 165.515 27.74C163.055 26.48 161.12 24.74 159.71 22.52C158.33 20.27 157.64 17.705 157.64 14.825C157.64 12.005 158.345 9.5 159.755 7.31C161.165 5.12 163.115 3.425 165.605 2.225C168.125 0.994998 170.945 0.379998 174.065 0.379998ZM202.71 29.54C199.92 29.54 197.43 28.895 195.24 27.605C193.08 26.285 191.4 24.515 190.2 22.295C189.03 20.045 188.445 17.6 188.445 14.96C188.445 11.87 189.225 9.23 190.785 7.04C192.345 4.82 194.34 3.155 196.77 2.045C199.23 0.934998 201.735 0.379998 204.285 0.379998C207.135 0.379998 209.64 1.055 211.8 2.405C213.96 3.725 215.61 5.48 216.75 7.67C217.92 9.86 218.505 12.185 218.505 14.645C218.505 17.375 217.785 19.88 216.345 22.16C214.905 24.44 212.97 26.24 210.54 27.56C208.14 28.88 205.53 29.54 202.71 29.54ZM204.285 28.55C206.265 28.55 208.035 28.055 209.595 27.065C211.185 26.075 212.43 24.635 213.33 22.745C214.26 20.825 214.725 18.545 214.725 15.905C214.725 13.115 214.215 10.625 213.195 8.435C212.205 6.245 210.78 4.535 208.92 3.305C207.06 2.075 204.9 1.46 202.44 1.46C199.23 1.46 196.725 2.525 194.925 4.655C193.125 6.755 192.225 9.665 192.225 13.385C192.225 16.205 192.735 18.77 193.755 21.08C194.775 23.39 196.2 25.22 198.03 26.57C199.86 27.89 201.945 28.55 204.285 28.55Z" fill="#84663E"/>
<path d="M0.4725 47C0.6875 46.42 0.9125 45.815 1.1475 45.185C1.3825 44.55 1.6075 43.945 1.8225 43.37L3.18 39.7025C3.425 39.0475 3.645 38.4525 3.84 37.9175C4.04 37.3825 4.24 36.845 4.44 36.305H5.85C6.05 36.855 6.2475 37.395 6.4425 37.925C6.6375 38.455 6.855 39.05 7.095 39.71L8.445 43.3925C8.66 43.9825 8.8825 44.59 9.1125 45.215C9.3425 45.835 9.56 46.43 9.765 47H8.67C8.44 46.36 8.2025 45.7025 7.9575 45.0275C7.7175 44.3475 7.49 43.705 7.275 43.1L5.1975 37.295H5.0775L2.985 43.0475C2.76 43.6725 2.5225 44.3275 2.2725 45.0125C2.0275 45.6925 1.7875 46.355 1.5525 47H0.4725ZM2.295 44.1875L2.37 43.3325H7.965L8.025 44.1875H2.295ZM11.5068 47C11.5068 46.445 11.5068 45.91 11.5068 45.395C11.5068 44.875 11.5068 44.31 11.5068 43.7V42.95C11.5068 42.52 11.5068 42.12 11.5068 41.75C11.5068 41.375 11.5068 41.01 11.5068 40.655C11.5068 40.3 11.5068 39.9375 11.5068 39.5675C11.9318 39.5675 12.4493 39.5675 13.0593 39.5675C13.6693 39.5675 14.2493 39.5675 14.7993 39.5675C15.3693 39.5675 15.8268 39.6425 16.1718 39.7925C16.5168 39.9375 16.7668 40.1425 16.9218 40.4075C17.0768 40.6675 17.1543 40.975 17.1543 41.33C17.1543 41.805 17.0318 42.1875 16.7868 42.4775C16.5468 42.7675 16.2468 42.9675 15.8868 43.0775V43.1675C16.1218 43.2075 16.3543 43.29 16.5843 43.415C16.8143 43.54 17.0043 43.7275 17.1543 43.9775C17.3043 44.2225 17.3793 44.555 17.3793 44.975C17.3793 45.35 17.2943 45.6925 17.1243 46.0025C16.9593 46.3075 16.6593 46.55 16.2243 46.73C15.7943 46.91 15.1818 47 14.3868 47C13.8218 47 13.2868 47 12.7818 47C12.2818 47 11.8568 47 11.5068 47ZM12.4518 46.1975H14.3268C14.8618 46.1975 15.2793 46.1475 15.5793 46.0475C15.8793 45.9425 16.0893 45.7925 16.2093 45.5975C16.3343 45.4025 16.3968 45.165 16.3968 44.885C16.3968 44.405 16.2343 44.07 15.9093 43.88C15.5843 43.685 15.1093 43.5875 14.4843 43.5875H12.1968V42.845H14.3568C14.8168 42.845 15.1768 42.785 15.4368 42.665C15.7018 42.545 15.8893 42.385 15.9993 42.185C16.1093 41.985 16.1643 41.7625 16.1643 41.5175C16.1643 41.0875 16.0293 40.79 15.7593 40.625C15.4893 40.455 15.1068 40.37 14.6118 40.37H12.4518C12.4518 40.805 12.4518 41.2225 12.4518 41.6225C12.4518 42.0225 12.4518 42.46 12.4518 42.935V43.685C12.4518 44.14 12.4518 44.5675 12.4518 44.9675C12.4518 45.3625 12.4518 45.7725 12.4518 46.1975ZM21.1573 47C21.1573 46.445 21.1573 45.91 21.1573 45.395C21.1573 44.88 21.1573 44.3175 21.1573 43.7075V42.9575C21.1573 42.5375 21.1573 42.1525 21.1573 41.8025C21.1573 41.4475 21.1573 41.1025 21.1573 40.7675C21.1573 40.4325 21.1573 40.085 21.1573 39.725L21.4948 40.385H21.2173C20.7823 40.385 20.3323 40.385 19.8673 40.385C19.4023 40.385 18.9423 40.385 18.4873 40.385V39.5675H24.7948V40.385C24.3448 40.385 23.8848 40.385 23.4148 40.385C22.9498 40.385 22.4998 40.385 22.0648 40.385H21.7873L22.1248 39.725C22.1248 40.085 22.1248 40.4325 22.1248 40.7675C22.1248 41.1025 22.1248 41.4475 22.1248 41.8025C22.1248 42.1525 22.1248 42.5375 22.1248 42.9575V43.7075C22.1248 44.3175 22.1248 44.88 22.1248 45.395C22.1248 45.91 22.1248 46.445 22.1248 47H21.1573ZM29.5417 47.1575C28.9467 47.1575 28.4192 47.0525 27.9592 46.8425C27.5042 46.6275 27.1192 46.3375 26.8042 45.9725C26.4892 45.6075 26.2492 45.19 26.0842 44.72C25.9242 44.245 25.8442 43.75 25.8442 43.235C25.8442 42.495 25.9942 41.8375 26.2942 41.2625C26.5992 40.6825 27.0267 40.2275 27.5767 39.8975C28.1317 39.5675 28.7817 39.4025 29.5267 39.4025C30.1017 39.4025 30.6142 39.5 31.0642 39.695C31.5142 39.885 31.8967 40.155 32.2117 40.505C32.5317 40.85 32.7717 41.255 32.9317 41.72C33.0967 42.185 33.1792 42.69 33.1792 43.235C33.1792 43.97 33.0317 44.635 32.7367 45.23C32.4417 45.82 32.0192 46.29 31.4692 46.64C30.9242 46.985 30.2817 47.1575 29.5417 47.1575ZM29.5342 46.2875C30.1292 46.2875 30.6217 46.1425 31.0117 45.8525C31.4067 45.5575 31.7017 45.18 31.8967 44.72C32.0917 44.255 32.1892 43.76 32.1892 43.235C32.1892 42.645 32.0817 42.1275 31.8667 41.6825C31.6517 41.2375 31.3442 40.8925 30.9442 40.6475C30.5492 40.3975 30.0792 40.2725 29.5342 40.2725C28.9492 40.2725 28.4542 40.405 28.0492 40.67C27.6492 40.93 27.3467 41.285 27.1417 41.735C26.9367 42.185 26.8342 42.685 26.8342 43.235C26.8342 43.76 26.9342 44.255 27.1342 44.72C27.3342 45.18 27.6342 45.5575 28.0342 45.8525C28.4342 46.1425 28.9342 46.2875 29.5342 46.2875ZM35.2519 49.9175C35.2519 49.3625 35.2519 48.82 35.2519 48.29C35.2519 47.765 35.2519 47.1975 35.2519 46.5875V42.9575C35.2519 42.4125 35.2519 41.8525 35.2519 41.2775C35.2519 40.7025 35.2519 40.1325 35.2519 39.5675L36.1444 39.5075L36.1669 40.46H36.2794C36.4244 40.275 36.6144 40.1025 36.8494 39.9425C37.0894 39.7775 37.3619 39.6475 37.6669 39.5525C37.9719 39.4525 38.3044 39.4025 38.6644 39.4025C39.3494 39.4025 39.9344 39.57 40.4194 39.905C40.9044 40.24 41.2744 40.7 41.5294 41.285C41.7894 41.865 41.9194 42.5225 41.9194 43.2575C41.9194 43.9525 41.7994 44.5975 41.5594 45.1925C41.3194 45.7825 40.9594 46.2575 40.4794 46.6175C40.0044 46.9775 39.4094 47.1575 38.6944 47.1575C38.3544 47.1575 38.0394 47.1125 37.7494 47.0225C37.4644 46.9375 37.2019 46.81 36.9619 46.64C36.7269 46.47 36.5119 46.2675 36.3169 46.0325H36.2194V46.625C36.2194 47.215 36.2194 47.765 36.2194 48.275C36.2194 48.79 36.2194 49.325 36.2194 49.88L35.2519 49.9175ZM38.4469 46.265C39.0269 46.265 39.4994 46.1225 39.8644 45.8375C40.2294 45.5525 40.4969 45.1825 40.6669 44.7275C40.8419 44.2725 40.9294 43.785 40.9294 43.265C40.9294 42.72 40.8369 42.225 40.6519 41.78C40.4719 41.33 40.1969 40.9725 39.8269 40.7075C39.4569 40.4375 38.9894 40.3025 38.4244 40.3025C38.1344 40.3025 37.8544 40.345 37.5844 40.43C37.3144 40.515 37.0619 40.6425 36.8269 40.8125C36.5919 40.9775 36.3894 41.185 36.2194 41.435V44.945C36.3844 45.22 36.5744 45.455 36.7894 45.65C37.0094 45.845 37.2569 45.9975 37.5319 46.1075C37.8069 46.2125 38.1119 46.265 38.4469 46.265ZM47.267 47.1425C46.472 47.1425 45.797 46.9725 45.242 46.6325C44.687 46.2925 44.2645 45.83 43.9745 45.245C43.6845 44.66 43.5395 44.005 43.5395 43.28C43.5395 42.545 43.6795 41.885 43.9595 41.3C44.2445 40.715 44.6545 40.2525 45.1895 39.9125C45.7245 39.5725 46.372 39.4025 47.132 39.4025C47.422 39.4025 47.707 39.4275 47.987 39.4775C48.267 39.5275 48.5295 39.5975 48.7745 39.6875C49.0245 39.7725 49.247 39.87 49.442 39.98L49.337 40.895C49.062 40.735 48.7995 40.6125 48.5495 40.5275C48.2995 40.4375 48.0645 40.3775 47.8445 40.3475C47.6245 40.3125 47.422 40.295 47.237 40.295C46.417 40.295 45.7595 40.5625 45.2645 41.0975C44.7745 41.6275 44.5295 42.3475 44.5295 43.2575C44.5295 43.8275 44.637 44.34 44.852 44.795C45.067 45.25 45.387 45.61 45.812 45.875C46.242 46.14 46.777 46.2725 47.417 46.2725C47.637 46.2725 47.857 46.2525 48.077 46.2125C48.302 46.1725 48.522 46.1125 48.737 46.0325C48.952 45.9475 49.1595 45.8425 49.3595 45.7175L49.472 46.64C49.312 46.725 49.1195 46.8075 48.8945 46.8875C48.6745 46.9625 48.427 47.0225 48.152 47.0675C47.882 47.1175 47.587 47.1425 47.267 47.1425ZM51.453 47C51.453 46.445 51.453 45.91 51.453 45.395C51.453 44.88 51.453 44.3175 51.453 43.7075V42.9275C51.453 42.4975 51.453 42.0975 51.453 41.7275C51.453 41.3575 51.453 40.9975 51.453 40.6475C51.453 40.2975 51.453 39.9375 51.453 39.5675L52.4205 39.53C52.4205 40.08 52.4205 40.6225 52.4205 41.1575C52.4205 41.6925 52.4205 42.2575 52.4205 42.8525V43.835C52.4205 44.41 52.4205 44.9475 52.4205 45.4475C52.4205 45.9425 52.4205 46.46 52.4205 47H51.453ZM56.4255 47C56.0605 46.65 55.6905 46.3025 55.3155 45.9575C54.9455 45.6075 54.5755 45.26 54.2055 44.915L52.803 43.595H52.2855V42.8675H52.8855L54.0555 41.7125C54.4205 41.3525 54.783 40.995 55.143 40.64C55.508 40.28 55.868 39.9225 56.223 39.5675H57.4605C57.0105 40.0025 56.563 40.4375 56.118 40.8725C55.673 41.3025 55.2305 41.7325 54.7905 42.1625L53.478 43.4375L53.448 42.95L54.963 44.405C55.423 44.835 55.8855 45.2675 56.3505 45.7025C56.8155 46.1375 57.278 46.57 57.738 47H56.4255ZM61.1714 47.15C60.7164 47.15 60.3214 47.065 59.9864 46.895C59.6514 46.72 59.3914 46.475 59.2064 46.16C59.0214 45.84 58.9289 45.4625 58.9289 45.0275C58.9289 44.6275 59.0014 44.2925 59.1464 44.0225C59.2914 43.7525 59.4814 43.5325 59.7164 43.3625C59.9564 43.1875 60.2164 43.0525 60.4964 42.9575C60.7764 42.8575 61.0539 42.7825 61.3289 42.7325L63.7589 42.2825C63.7789 41.7125 63.7064 41.285 63.5414 41C63.3814 40.71 63.1589 40.5175 62.8739 40.4225C62.5889 40.3225 62.2739 40.2725 61.9289 40.2725C61.7589 40.2725 61.5764 40.285 61.3814 40.31C61.1864 40.33 60.9814 40.365 60.7664 40.415C60.5514 40.465 60.3214 40.53 60.0764 40.61C59.8364 40.69 59.5814 40.7875 59.3114 40.9025L59.2514 39.9875C59.4314 39.9125 59.6314 39.84 59.8514 39.77C60.0764 39.7 60.3139 39.6375 60.5639 39.5825C60.8139 39.5275 61.0689 39.485 61.3289 39.455C61.5939 39.42 61.8514 39.4025 62.1014 39.4025C62.6364 39.4025 63.0964 39.49 63.4814 39.665C63.8714 39.835 64.1689 40.1075 64.3739 40.4825C64.5839 40.8575 64.6889 41.34 64.6889 41.93C64.6889 42.165 64.6889 42.46 64.6889 42.815C64.6889 43.17 64.6889 43.51 64.6889 43.835V44.8475C64.6889 45.1775 64.6889 45.5175 64.6889 45.8675C64.6889 46.2125 64.6889 46.59 64.6889 47H63.8039L63.7664 45.8975H63.6464C63.4914 46.1075 63.2889 46.31 63.0389 46.505C62.7939 46.695 62.5114 46.85 62.1914 46.97C61.8764 47.09 61.5364 47.15 61.1714 47.15ZM61.4114 46.31C61.6964 46.31 61.9839 46.255 62.2739 46.145C62.5639 46.03 62.8339 45.855 63.0839 45.62C63.3389 45.385 63.5539 45.0875 63.7289 44.7275L63.7364 42.9125C63.6514 42.9575 63.5389 43.005 63.3989 43.055C63.2589 43.1 63.0489 43.155 62.7689 43.22C62.4889 43.28 62.0964 43.3575 61.5914 43.4525C61.2764 43.5075 60.9914 43.595 60.7364 43.715C60.4864 43.835 60.2864 44 60.1364 44.21C59.9864 44.415 59.9114 44.675 59.9114 44.99C59.9114 45.47 60.0539 45.81 60.3389 46.01C60.6289 46.21 60.9864 46.31 61.4114 46.31ZM66.4376 47C66.7126 46.645 66.9876 46.2875 67.2626 45.9275C67.5376 45.5675 67.8076 45.215 68.0726 44.87L69.2051 43.4L69.2801 43.895C68.6351 43.895 68.1226 43.805 67.7426 43.625C67.3626 43.445 67.0901 43.1975 66.9251 42.8825C66.7601 42.5625 66.6776 42.1975 66.6776 41.7875C66.6776 41.2825 66.7826 40.8675 66.9926 40.5425C67.2026 40.2125 67.5151 39.9675 67.9301 39.8075C68.3501 39.6475 68.8701 39.5675 69.4901 39.5675C69.8251 39.5675 70.1726 39.5675 70.5326 39.5675C70.8926 39.5675 71.2301 39.5675 71.5451 39.5675C71.8651 39.5675 72.1301 39.5675 72.3401 39.5675C72.3401 39.9375 72.3401 40.3 72.3401 40.655C72.3401 41.01 72.3401 41.375 72.3401 41.75C72.3401 42.125 72.3401 42.5275 72.3401 42.9575V43.7075C72.3401 44.3175 72.3401 44.88 72.3401 45.395C72.3401 45.91 72.3401 46.445 72.3401 47H71.3951C71.3951 46.66 71.3951 46.3325 71.3951 46.0175C71.3951 45.7025 71.3951 45.38 71.3951 45.05C71.3951 44.72 71.3951 44.3725 71.3951 44.0075V42.95C71.3951 42.48 71.3951 42.0375 71.3951 41.6225C71.3951 41.2075 71.3951 40.79 71.3951 40.37H69.5726C69.2826 40.37 68.9901 40.405 68.6951 40.475C68.4001 40.545 68.1526 40.6875 67.9526 40.9025C67.7576 41.1175 67.6601 41.4425 67.6601 41.8775C67.6601 42.2275 67.7276 42.5 67.8626 42.695C67.9976 42.89 68.1701 43.03 68.3801 43.115C68.5901 43.195 68.8101 43.245 69.0401 43.265C69.2751 43.285 69.4851 43.295 69.6701 43.295H71.5751V44.03H69.5501L70.1201 43.625L69.1226 44.945C68.8676 45.285 68.6076 45.6275 68.3426 45.9725C68.0826 46.3175 67.8251 46.66 67.5701 47H66.4376ZM78.572 49.9175C78.767 49.4325 78.9645 48.9425 79.1645 48.4475C79.3645 47.9575 79.5645 47.4725 79.7645 46.9925V47.2775C79.5745 46.7625 79.382 46.245 79.187 45.725C78.992 45.2 78.802 44.69 78.617 44.195L78.1145 42.845C77.9195 42.31 77.717 41.7625 77.507 41.2025C77.297 40.6425 77.092 40.0975 76.892 39.5675L77.9345 39.53C78.1645 40.2 78.392 40.855 78.617 41.495C78.842 42.135 79.0695 42.79 79.2995 43.46L80.1695 45.95H80.282L81.227 43.445C81.477 42.795 81.722 42.15 81.962 41.51C82.202 40.865 82.4445 40.2175 82.6895 39.5675H83.702C83.542 39.9675 83.387 40.355 83.237 40.73C83.092 41.1 82.9295 41.51 82.7495 41.96C82.5745 42.41 82.362 42.945 82.112 43.565L81.2795 45.6575C80.9045 46.6075 80.5845 47.4125 80.3195 48.0725C80.0595 48.7375 79.8195 49.34 79.5995 49.88L78.572 49.9175ZM85.3788 47C85.3788 46.445 85.3788 45.91 85.3788 45.395C85.3788 44.88 85.3788 44.3175 85.3788 43.7075V42.9575C85.3788 42.5275 85.3788 42.125 85.3788 41.75C85.3788 41.375 85.3788 41.01 85.3788 40.655C85.3788 40.3 85.3788 39.9375 85.3788 39.5675H91.3413C91.3413 39.9375 91.3413 40.3 91.3413 40.655C91.3413 41.01 91.3413 41.375 91.3413 41.75C91.3413 42.125 91.3413 42.5275 91.3413 42.9575V43.7075C91.3413 44.3175 91.3413 44.88 91.3413 45.395C91.3413 45.91 91.3413 46.445 91.3413 47H90.3813C90.3813 46.445 90.3813 45.91 90.3813 45.395C90.3813 44.88 90.3813 44.3175 90.3813 43.7075V42.9575C90.3813 42.5375 90.3813 42.1525 90.3813 41.8025C90.3813 41.4475 90.3813 41.1025 90.3813 40.7675C90.3813 40.4325 90.3813 40.085 90.3813 39.725L90.8313 40.385H85.8888L86.3388 39.725C86.3388 40.085 86.3388 40.4325 86.3388 40.7675C86.3388 41.1025 86.3388 41.4475 86.3388 41.8025C86.3388 42.1525 86.3388 42.5375 86.3388 42.9575V43.7075C86.3388 44.3175 86.3388 44.88 86.3388 45.395C86.3388 45.91 86.3388 46.445 86.3388 47H85.3788ZM95.7124 47.15C95.2574 47.15 94.8624 47.065 94.5274 46.895C94.1924 46.72 93.9324 46.475 93.7474 46.16C93.5624 45.84 93.4699 45.4625 93.4699 45.0275C93.4699 44.6275 93.5424 44.2925 93.6874 44.0225C93.8324 43.7525 94.0224 43.5325 94.2574 43.3625C94.4974 43.1875 94.7574 43.0525 95.0374 42.9575C95.3174 42.8575 95.5949 42.7825 95.8699 42.7325L98.2999 42.2825C98.3199 41.7125 98.2474 41.285 98.0824 41C97.9224 40.71 97.6999 40.5175 97.4149 40.4225C97.1299 40.3225 96.8149 40.2725 96.4699 40.2725C96.2999 40.2725 96.1174 40.285 95.9224 40.31C95.7274 40.33 95.5224 40.365 95.3074 40.415C95.0924 40.465 94.8624 40.53 94.6174 40.61C94.3774 40.69 94.1224 40.7875 93.8524 40.9025L93.7924 39.9875C93.9724 39.9125 94.1724 39.84 94.3924 39.77C94.6174 39.7 94.8549 39.6375 95.1049 39.5825C95.3549 39.5275 95.6099 39.485 95.8699 39.455C96.1349 39.42 96.3924 39.4025 96.6424 39.4025C97.1774 39.4025 97.6374 39.49 98.0224 39.665C98.4124 39.835 98.7099 40.1075 98.9149 40.4825C99.1249 40.8575 99.2299 41.34 99.2299 41.93C99.2299 42.165 99.2299 42.46 99.2299 42.815C99.2299 43.17 99.2299 43.51 99.2299 43.835V44.8475C99.2299 45.1775 99.2299 45.5175 99.2299 45.8675C99.2299 46.2125 99.2299 46.59 99.2299 47H98.3449L98.3074 45.8975H98.1874C98.0324 46.1075 97.8299 46.31 97.5799 46.505C97.3349 46.695 97.0524 46.85 96.7324 46.97C96.4174 47.09 96.0774 47.15 95.7124 47.15ZM95.9524 46.31C96.2374 46.31 96.5249 46.255 96.8149 46.145C97.1049 46.03 97.3749 45.855 97.6249 45.62C97.8799 45.385 98.0949 45.0875 98.2699 44.7275L98.2774 42.9125C98.1924 42.9575 98.0799 43.005 97.9399 43.055C97.7999 43.1 97.5899 43.155 97.3099 43.22C97.0299 43.28 96.6374 43.3575 96.1324 43.4525C95.8174 43.5075 95.5324 43.595 95.2774 43.715C95.0274 43.835 94.8274 44 94.6774 44.21C94.5274 44.415 94.4524 44.675 94.4524 44.99C94.4524 45.47 94.5949 45.81 94.8799 46.01C95.1699 46.21 95.5274 46.31 95.9524 46.31ZM101.639 47C101.639 46.445 101.639 45.91 101.639 45.395C101.639 44.88 101.639 44.3175 101.639 43.7075V42.9275C101.639 42.4975 101.639 42.0975 101.639 41.7275C101.639 41.3575 101.639 40.9975 101.639 40.6475C101.639 40.2975 101.639 39.9375 101.639 39.5675L102.606 39.53C102.606 40.08 102.606 40.6225 102.606 41.1575C102.606 41.6925 102.606 42.2575 102.606 42.8525V43.835C102.606 44.41 102.606 44.9475 102.606 45.4475C102.606 45.9425 102.606 46.46 102.606 47H101.639ZM106.611 47C106.246 46.65 105.876 46.3025 105.501 45.9575C105.131 45.6075 104.761 45.26 104.391 44.915L102.989 43.595H102.471V42.8675H103.071L104.241 41.7125C104.606 41.3525 104.969 40.995 105.329 40.64C105.694 40.28 106.054 39.9225 106.409 39.5675H107.646C107.196 40.0025 106.749 40.4375 106.304 40.8725C105.859 41.3025 105.416 41.7325 104.976 42.1625L103.664 43.4375L103.634 42.95L105.149 44.405C105.609 44.835 106.071 45.2675 106.536 45.7025C107.001 46.1375 107.464 46.57 107.924 47H106.611ZM112.437 47.1575C111.842 47.1575 111.315 47.0525 110.855 46.8425C110.4 46.6275 110.015 46.3375 109.7 45.9725C109.385 45.6075 109.145 45.19 108.98 44.72C108.82 44.245 108.74 43.75 108.74 43.235C108.74 42.495 108.89 41.8375 109.19 41.2625C109.495 40.6825 109.922 40.2275 110.472 39.8975C111.027 39.5675 111.677 39.4025 112.422 39.4025C112.997 39.4025 113.51 39.5 113.96 39.695C114.41 39.885 114.792 40.155 115.107 40.505C115.427 40.85 115.667 41.255 115.827 41.72C115.992 42.185 116.075 42.69 116.075 43.235C116.075 43.97 115.927 44.635 115.632 45.23C115.337 45.82 114.915 46.29 114.365 46.64C113.82 46.985 113.177 47.1575 112.437 47.1575ZM112.43 46.2875C113.025 46.2875 113.517 46.1425 113.907 45.8525C114.302 45.5575 114.597 45.18 114.792 44.72C114.987 44.255 115.085 43.76 115.085 43.235C115.085 42.645 114.977 42.1275 114.762 41.6825C114.547 41.2375 114.24 40.8925 113.84 40.6475C113.445 40.3975 112.975 40.2725 112.43 40.2725C111.845 40.2725 111.35 40.405 110.945 40.67C110.545 40.93 110.242 41.285 110.037 41.735C109.832 42.185 109.73 42.685 109.73 43.235C109.73 43.76 109.83 44.255 110.03 44.72C110.23 45.18 110.53 45.5575 110.93 45.8525C111.33 46.1425 111.83 46.2875 112.43 46.2875ZM118.147 47C118.147 46.445 118.147 45.91 118.147 45.395C118.147 44.875 118.147 44.31 118.147 43.7V42.95C118.147 42.52 118.147 42.12 118.147 41.75C118.147 41.375 118.147 41.01 118.147 40.655C118.147 40.3 118.147 39.9375 118.147 39.5675C118.572 39.5675 119.09 39.5675 119.7 39.5675C120.31 39.5675 120.89 39.5675 121.44 39.5675C122.01 39.5675 122.467 39.6425 122.812 39.7925C123.157 39.9375 123.407 40.1425 123.562 40.4075C123.717 40.6675 123.795 40.975 123.795 41.33C123.795 41.805 123.672 42.1875 123.427 42.4775C123.187 42.7675 122.887 42.9675 122.527 43.0775V43.1675C122.762 43.2075 122.995 43.29 123.225 43.415C123.455 43.54 123.645 43.7275 123.795 43.9775C123.945 44.2225 124.02 44.555 124.02 44.975C124.02 45.35 123.935 45.6925 123.765 46.0025C123.6 46.3075 123.3 46.55 122.865 46.73C122.435 46.91 121.822 47 121.027 47C120.462 47 119.927 47 119.422 47C118.922 47 118.497 47 118.147 47ZM119.092 46.1975H120.967C121.502 46.1975 121.92 46.1475 122.22 46.0475C122.52 45.9425 122.73 45.7925 122.85 45.5975C122.975 45.4025 123.037 45.165 123.037 44.885C123.037 44.405 122.875 44.07 122.55 43.88C122.225 43.685 121.75 43.5875 121.125 43.5875H118.837V42.845H120.997C121.457 42.845 121.817 42.785 122.077 42.665C122.342 42.545 122.53 42.385 122.64 42.185C122.75 41.985 122.805 41.7625 122.805 41.5175C122.805 41.0875 122.67 40.79 122.4 40.625C122.13 40.455 121.747 40.37 121.252 40.37H119.092C119.092 40.805 119.092 41.2225 119.092 41.6225C119.092 42.0225 119.092 42.46 119.092 42.935V43.685C119.092 44.14 119.092 44.5675 119.092 44.9675C119.092 45.3625 119.092 45.7725 119.092 46.1975ZM126.043 47C126.043 46.445 126.043 45.91 126.043 45.395C126.043 44.88 126.043 44.3175 126.043 43.7075V42.9275C126.043 42.4975 126.043 42.0975 126.043 41.7275C126.043 41.3575 126.043 40.9975 126.043 40.6475C126.043 40.2975 126.043 39.9375 126.043 39.5675L127.01 39.53C127.01 40.08 127.01 40.6225 127.01 41.1575C127.01 41.6925 127.01 42.2575 127.01 42.8525V43.835C127.01 44.41 127.01 44.9475 127.01 45.4475C127.01 45.9425 127.01 46.46 127.01 47H126.043ZM131.015 47C130.65 46.65 130.28 46.3025 129.905 45.9575C129.535 45.6075 129.165 45.26 128.795 44.915L127.393 43.595H126.875V42.8675H127.475L128.645 41.7125C129.01 41.3525 129.373 40.995 129.733 40.64C130.098 40.28 130.458 39.9225 130.813 39.5675H132.05C131.6 40.0025 131.153 40.4375 130.708 40.8725C130.263 41.3025 129.82 41.7325 129.38 42.1625L128.068 43.4375L128.038 42.95L129.553 44.405C130.013 44.835 130.475 45.2675 130.94 45.7025C131.405 46.1375 131.868 46.57 132.328 47H131.015ZM135.761 47.15C135.306 47.15 134.911 47.065 134.576 46.895C134.241 46.72 133.981 46.475 133.796 46.16C133.611 45.84 133.519 45.4625 133.519 45.0275C133.519 44.6275 133.591 44.2925 133.736 44.0225C133.881 43.7525 134.071 43.5325 134.306 43.3625C134.546 43.1875 134.806 43.0525 135.086 42.9575C135.366 42.8575 135.644 42.7825 135.919 42.7325L138.349 42.2825C138.369 41.7125 138.296 41.285 138.131 41C137.971 40.71 137.749 40.5175 137.464 40.4225C137.179 40.3225 136.864 40.2725 136.519 40.2725C136.349 40.2725 136.166 40.285 135.971 40.31C135.776 40.33 135.571 40.365 135.356 40.415C135.141 40.465 134.911 40.53 134.666 40.61C134.426 40.69 134.171 40.7875 133.901 40.9025L133.841 39.9875C134.021 39.9125 134.221 39.84 134.441 39.77C134.666 39.7 134.904 39.6375 135.154 39.5825C135.404 39.5275 135.659 39.485 135.919 39.455C136.184 39.42 136.441 39.4025 136.691 39.4025C137.226 39.4025 137.686 39.49 138.071 39.665C138.461 39.835 138.759 40.1075 138.964 40.4825C139.174 40.8575 139.279 41.34 139.279 41.93C139.279 42.165 139.279 42.46 139.279 42.815C139.279 43.17 139.279 43.51 139.279 43.835V44.8475C139.279 45.1775 139.279 45.5175 139.279 45.8675C139.279 46.2125 139.279 46.59 139.279 47H138.394L138.356 45.8975H138.236C138.081 46.1075 137.879 46.31 137.629 46.505C137.384 46.695 137.101 46.85 136.781 46.97C136.466 47.09 136.126 47.15 135.761 47.15ZM136.001 46.31C136.286 46.31 136.574 46.255 136.864 46.145C137.154 46.03 137.424 45.855 137.674 45.62C137.929 45.385 138.144 45.0875 138.319 44.7275L138.326 42.9125C138.241 42.9575 138.129 43.005 137.989 43.055C137.849 43.1 137.639 43.155 137.359 43.22C137.079 43.28 136.686 43.3575 136.181 43.4525C135.866 43.5075 135.581 43.595 135.326 43.715C135.076 43.835 134.876 44 134.726 44.21C134.576 44.415 134.501 44.675 134.501 44.99C134.501 45.47 134.644 45.81 134.929 46.01C135.219 46.21 135.576 46.31 136.001 46.31ZM144.559 49.9175C144.559 49.3625 144.559 48.82 144.559 48.29C144.559 47.765 144.559 47.1975 144.559 46.5875V42.9575C144.559 42.4125 144.559 41.8525 144.559 41.2775C144.559 40.7025 144.559 40.1325 144.559 39.5675L145.451 39.5075L145.474 40.46H145.586C145.731 40.275 145.921 40.1025 146.156 39.9425C146.396 39.7775 146.669 39.6475 146.974 39.5525C147.279 39.4525 147.611 39.4025 147.971 39.4025C148.656 39.4025 149.241 39.57 149.726 39.905C150.211 40.24 150.581 40.7 150.836 41.285C151.096 41.865 151.226 42.5225 151.226 43.2575C151.226 43.9525 151.106 44.5975 150.866 45.1925C150.626 45.7825 150.266 46.2575 149.786 46.6175C149.311 46.9775 148.716 47.1575 148.001 47.1575C147.661 47.1575 147.346 47.1125 147.056 47.0225C146.771 46.9375 146.509 46.81 146.269 46.64C146.034 46.47 145.819 46.2675 145.624 46.0325H145.526V46.625C145.526 47.215 145.526 47.765 145.526 48.275C145.526 48.79 145.526 49.325 145.526 49.88L144.559 49.9175ZM147.754 46.265C148.334 46.265 148.806 46.1225 149.171 45.8375C149.536 45.5525 149.804 45.1825 149.974 44.7275C150.149 44.2725 150.236 43.785 150.236 43.265C150.236 42.72 150.144 42.225 149.959 41.78C149.779 41.33 149.504 40.9725 149.134 40.7075C148.764 40.4375 148.296 40.3025 147.731 40.3025C147.441 40.3025 147.161 40.345 146.891 40.43C146.621 40.515 146.369 40.6425 146.134 40.8125C145.899 40.9775 145.696 41.185 145.526 41.435V44.945C145.691 45.22 145.881 45.455 146.096 45.65C146.316 45.845 146.564 45.9975 146.839 46.1075C147.114 46.2125 147.419 46.265 147.754 46.265ZM153.953 49.9175C154.148 49.4325 154.345 48.9425 154.545 48.4475C154.745 47.9575 154.945 47.4725 155.145 46.9925V47.2775C154.955 46.7625 154.763 46.245 154.568 45.725C154.373 45.2 154.183 44.69 153.998 44.195L153.495 42.845C153.3 42.31 153.098 41.7625 152.888 41.2025C152.678 40.6425 152.473 40.0975 152.273 39.5675L153.315 39.53C153.545 40.2 153.773 40.855 153.998 41.495C154.223 42.135 154.45 42.79 154.68 43.46L155.55 45.95H155.663L156.608 43.445C156.858 42.795 157.103 42.15 157.343 41.51C157.583 40.865 157.825 40.2175 158.07 39.5675H159.083C158.923 39.9675 158.768 40.355 158.618 40.73C158.473 41.1 158.31 41.51 158.13 41.96C157.955 42.41 157.743 42.945 157.493 43.565L156.66 45.6575C156.285 46.6075 155.965 47.4125 155.7 48.0725C155.44 48.7375 155.2 49.34 154.98 49.88L153.953 49.9175ZM165.147 47C165.147 46.5 165.147 45.975 165.147 45.425C165.147 44.87 165.147 44.355 165.147 43.88C164.982 43.955 164.792 44.03 164.577 44.105C164.367 44.175 164.135 44.235 163.88 44.285C163.625 44.335 163.35 44.36 163.055 44.36C162.475 44.36 161.98 44.28 161.57 44.12C161.16 43.96 160.847 43.7125 160.632 43.3775C160.417 43.0375 160.31 42.6 160.31 42.065C160.31 41.765 160.31 41.4775 160.31 41.2025C160.31 40.9275 160.31 40.655 160.31 40.385C160.31 40.115 160.31 39.8425 160.31 39.5675L161.27 39.53C161.27 39.93 161.27 40.3275 161.27 40.7225C161.27 41.1175 161.27 41.525 161.27 41.945C161.27 42.54 161.43 42.96 161.75 43.205C162.07 43.445 162.577 43.565 163.272 43.565C163.472 43.565 163.68 43.5475 163.895 43.5125C164.115 43.4775 164.332 43.425 164.547 43.355C164.762 43.28 164.962 43.19 165.147 43.085V42.7925C165.147 42.3825 165.147 42 165.147 41.645C165.147 41.29 165.147 40.945 165.147 40.61C165.147 40.27 165.147 39.9225 165.147 39.5675H166.1C166.1 39.9375 166.1 40.3 166.1 40.655C166.1 41.01 166.1 41.375 166.1 41.75C166.1 42.125 166.1 42.5275 166.1 42.9575V43.7075C166.1 44.3175 166.1 44.88 166.1 45.395C166.1 45.91 166.1 46.445 166.1 47H165.147ZM168.641 47C168.641 46.445 168.641 45.91 168.641 45.395C168.641 44.88 168.641 44.3175 168.641 43.7075V42.9575C168.641 42.5275 168.641 42.125 168.641 41.75C168.641 41.375 168.641 41.01 168.641 40.655C168.641 40.3 168.641 39.9375 168.641 39.5675L169.593 39.53C169.593 39.9 169.593 40.265 169.593 40.625C169.593 40.985 169.593 41.355 169.593 41.735C169.593 42.11 169.593 42.5175 169.593 42.9575V43.7075C169.593 44.3175 169.593 44.88 169.593 45.395C169.593 45.91 169.593 46.445 169.593 47H168.641ZM169.203 43.6475V42.8375H174.108V43.6475H169.203ZM173.658 47C173.658 46.445 173.658 45.91 173.658 45.395C173.658 44.88 173.658 44.3175 173.658 43.7075V42.9575C173.658 42.5275 173.658 42.125 173.658 41.75C173.658 41.375 173.658 41.01 173.658 40.655C173.658 40.3 173.658 39.9375 173.658 39.5675H174.618C174.618 39.9375 174.618 40.3 174.618 40.655C174.618 41.01 174.618 41.375 174.618 41.75C174.618 42.125 174.618 42.5275 174.618 42.9575V43.7075C174.618 44.3175 174.618 44.88 174.618 45.395C174.618 45.91 174.618 46.445 174.618 47H173.658ZM180.391 47.1575C179.796 47.1575 179.269 47.0525 178.809 46.8425C178.354 46.6275 177.969 46.3375 177.654 45.9725C177.339 45.6075 177.099 45.19 176.934 44.72C176.774 44.245 176.694 43.75 176.694 43.235C176.694 42.495 176.844 41.8375 177.144 41.2625C177.449 40.6825 177.876 40.2275 178.426 39.8975C178.981 39.5675 179.631 39.4025 180.376 39.4025C180.951 39.4025 181.464 39.5 181.914 39.695C182.364 39.885 182.746 40.155 183.061 40.505C183.381 40.85 183.621 41.255 183.781 41.72C183.946 42.185 184.029 42.69 184.029 43.235C184.029 43.97 183.881 44.635 183.586 45.23C183.291 45.82 182.869 46.29 182.319 46.64C181.774 46.985 181.131 47.1575 180.391 47.1575ZM180.384 46.2875C180.979 46.2875 181.471 46.1425 181.861 45.8525C182.256 45.5575 182.551 45.18 182.746 44.72C182.941 44.255 183.039 43.76 183.039 43.235C183.039 42.645 182.931 42.1275 182.716 41.6825C182.501 41.2375 182.194 40.8925 181.794 40.6475C181.399 40.3975 180.929 40.2725 180.384 40.2725C179.799 40.2725 179.304 40.405 178.899 40.67C178.499 40.93 178.196 41.285 177.991 41.735C177.786 42.185 177.684 42.685 177.684 43.235C177.684 43.76 177.784 44.255 177.984 44.72C178.184 45.18 178.484 45.5575 178.884 45.8525C179.284 46.1425 179.784 46.2875 180.384 46.2875ZM186.101 47C186.101 46.445 186.101 45.91 186.101 45.395C186.101 44.88 186.101 44.3175 186.101 43.7075V42.9575C186.101 42.5275 186.101 42.125 186.101 41.75C186.101 41.375 186.101 41.01 186.101 40.655C186.101 40.3 186.101 39.9375 186.101 39.5675L187.039 39.5375C187.039 39.8975 187.039 40.2525 187.039 40.6025C187.039 40.9525 187.039 41.3125 187.039 41.6825C187.039 42.0475 187.039 42.4425 187.039 42.8675V45.53H187.129L188.891 42.92C189.266 42.36 189.644 41.8 190.024 41.24C190.404 40.675 190.779 40.1175 191.149 39.5675H192.139C192.139 39.9375 192.139 40.3 192.139 40.655C192.139 41.01 192.139 41.375 192.139 41.75C192.139 42.125 192.139 42.5275 192.139 42.9575V43.7075C192.139 44.3175 192.139 44.88 192.139 45.395C192.139 45.91 192.139 46.445 192.139 47H191.201C191.201 46.445 191.201 45.9125 191.201 45.4025C191.201 44.8925 191.201 44.335 191.201 43.73V41.0375H191.104L189.364 43.6175C188.984 44.1875 188.604 44.755 188.224 45.32C187.844 45.88 187.466 46.44 187.091 47H186.101ZM189.124 38.3525C188.309 38.3525 187.699 38.135 187.294 37.7C186.889 37.26 186.686 36.6925 186.686 35.9975L187.526 35.9675C187.526 36.5325 187.659 36.955 187.924 37.235C188.194 37.515 188.594 37.655 189.124 37.655C189.479 37.655 189.774 37.595 190.009 37.475C190.244 37.35 190.419 37.165 190.534 36.92C190.654 36.67 190.714 36.3625 190.714 35.9975H191.561C191.556 36.6925 191.356 37.26 190.961 37.7C190.566 38.135 189.954 38.3525 189.124 38.3525ZM197.542 49.9175C197.542 49.3625 197.542 48.82 197.542 48.29C197.542 47.765 197.542 47.1975 197.542 46.5875V42.9575C197.542 42.4125 197.542 41.8525 197.542 41.2775C197.542 40.7025 197.542 40.1325 197.542 39.5675L198.434 39.5075L198.457 40.46H198.569C198.714 40.275 198.904 40.1025 199.139 39.9425C199.379 39.7775 199.652 39.6475 199.957 39.5525C200.262 39.4525 200.594 39.4025 200.954 39.4025C201.639 39.4025 202.224 39.57 202.709 39.905C203.194 40.24 203.564 40.7 203.819 41.285C204.079 41.865 204.209 42.5225 204.209 43.2575C204.209 43.9525 204.089 44.5975 203.849 45.1925C203.609 45.7825 203.249 46.2575 202.769 46.6175C202.294 46.9775 201.699 47.1575 200.984 47.1575C200.644 47.1575 200.329 47.1125 200.039 47.0225C199.754 46.9375 199.492 46.81 199.252 46.64C199.017 46.47 198.802 46.2675 198.607 46.0325H198.509V46.625C198.509 47.215 198.509 47.765 198.509 48.275C198.509 48.79 198.509 49.325 198.509 49.88L197.542 49.9175ZM200.737 46.265C201.317 46.265 201.789 46.1225 202.154 45.8375C202.519 45.5525 202.787 45.1825 202.957 44.7275C203.132 44.2725 203.219 43.785 203.219 43.265C203.219 42.72 203.127 42.225 202.942 41.78C202.762 41.33 202.487 40.9725 202.117 40.7075C201.747 40.4375 201.279 40.3025 200.714 40.3025C200.424 40.3025 200.144 40.345 199.874 40.43C199.604 40.515 199.352 40.6425 199.117 40.8125C198.882 40.9775 198.679 41.185 198.509 41.435V44.945C198.674 45.22 198.864 45.455 199.079 45.65C199.299 45.845 199.547 45.9975 199.822 46.1075C200.097 46.2125 200.402 46.265 200.737 46.265ZM208.125 47.15C207.67 47.15 207.275 47.065 206.94 46.895C206.605 46.72 206.345 46.475 206.16 46.16C205.975 45.84 205.882 45.4625 205.882 45.0275C205.882 44.6275 205.955 44.2925 206.1 44.0225C206.245 43.7525 206.435 43.5325 206.67 43.3625C206.91 43.1875 207.17 43.0525 207.45 42.9575C207.73 42.8575 208.007 42.7825 208.282 42.7325L210.712 42.2825C210.732 41.7125 210.66 41.285 210.495 41C210.335 40.71 210.112 40.5175 209.827 40.4225C209.542 40.3225 209.227 40.2725 208.882 40.2725C208.712 40.2725 208.53 40.285 208.335 40.31C208.14 40.33 207.935 40.365 207.72 40.415C207.505 40.465 207.275 40.53 207.03 40.61C206.79 40.69 206.535 40.7875 206.265 40.9025L206.205 39.9875C206.385 39.9125 206.585 39.84 206.805 39.77C207.03 39.7 207.267 39.6375 207.517 39.5825C207.767 39.5275 208.022 39.485 208.282 39.455C208.547 39.42 208.805 39.4025 209.055 39.4025C209.59 39.4025 210.05 39.49 210.435 39.665C210.825 39.835 211.122 40.1075 211.327 40.4825C211.537 40.8575 211.642 41.34 211.642 41.93C211.642 42.165 211.642 42.46 211.642 42.815C211.642 43.17 211.642 43.51 211.642 43.835V44.8475C211.642 45.1775 211.642 45.5175 211.642 45.8675C211.642 46.2125 211.642 46.59 211.642 47H210.757L210.72 45.8975H210.6C210.445 46.1075 210.242 46.31 209.992 46.505C209.747 46.695 209.465 46.85 209.145 46.97C208.83 47.09 208.49 47.15 208.125 47.15ZM208.365 46.31C208.65 46.31 208.937 46.255 209.227 46.145C209.517 46.03 209.787 45.855 210.037 45.62C210.292 45.385 210.507 45.0875 210.682 44.7275L210.69 42.9125C210.605 42.9575 210.492 43.005 210.352 43.055C210.212 43.1 210.002 43.155 209.722 43.22C209.442 43.28 209.05 43.3575 208.545 43.4525C208.23 43.5075 207.945 43.595 207.69 43.715C207.44 43.835 207.24 44 207.09 44.21C206.94 44.415 206.865 44.675 206.865 44.99C206.865 45.47 207.007 45.81 207.292 46.01C207.582 46.21 207.94 46.31 208.365 46.31ZM217.493 47.15C216.753 47.15 216.098 46.9675 215.528 46.6025C214.963 46.2375 214.518 45.6725 214.193 44.9075C213.873 44.1375 213.713 43.1475 213.713 41.9375C213.713 40.7925 213.828 39.8075 214.058 38.9825C214.293 38.1525 214.701 37.4975 215.281 37.0175C215.861 36.5375 216.671 36.2475 217.711 36.1475C217.826 36.1375 218.001 36.1225 218.236 36.1025C218.471 36.0775 218.731 36.05 219.016 36.02C219.306 35.99 219.591 35.9625 219.871 35.9375C220.151 35.9125 220.393 35.89 220.598 35.87L220.681 36.8C220.471 36.82 220.223 36.8425 219.938 36.8675C219.653 36.8925 219.363 36.92 219.068 36.95C218.778 36.975 218.518 36.9975 218.288 37.0175C218.063 37.0375 217.903 37.0525 217.808 37.0625C216.948 37.1425 216.288 37.3725 215.828 37.7525C215.373 38.1325 215.058 38.66 214.883 39.335C214.708 40.005 214.618 40.82 214.613 41.78L214.726 41.87C214.726 42.635 214.791 43.2975 214.921 43.8575C215.051 44.4125 215.238 44.87 215.483 45.23C215.728 45.59 216.018 45.8575 216.353 46.0325C216.693 46.2025 217.073 46.2875 217.493 46.2875C218.088 46.2875 218.576 46.145 218.956 45.86C219.341 45.575 219.623 45.2025 219.803 44.7425C219.988 44.2775 220.081 43.7825 220.081 43.2575C220.081 42.7275 220.001 42.245 219.841 41.81C219.686 41.37 219.428 41.02 219.068 40.76C218.713 40.495 218.238 40.3625 217.643 40.3625C217.363 40.3625 217.048 40.42 216.698 40.535C216.348 40.645 215.993 40.8375 215.633 41.1125C215.278 41.3875 214.948 41.7675 214.643 42.2525C214.563 42.1375 214.506 42.0125 214.471 41.8775C214.441 41.7425 214.426 41.61 214.426 41.48C214.431 41.345 214.443 41.22 214.463 41.105H214.733C215.033 40.73 215.363 40.4275 215.723 40.1975C216.083 39.9675 216.448 39.8 216.818 39.695C217.193 39.59 217.546 39.5375 217.876 39.5375C218.591 39.5375 219.183 39.6975 219.653 40.0175C220.128 40.3375 220.483 40.775 220.718 41.33C220.958 41.885 221.078 42.52 221.078 43.235C221.078 43.95 220.938 44.605 220.658 45.2C220.378 45.795 219.971 46.27 219.436 46.625C218.906 46.975 218.258 47.15 217.493 47.15ZM226.402 47.1575C225.807 47.1575 225.28 47.0525 224.82 46.8425C224.365 46.6275 223.98 46.3375 223.665 45.9725C223.35 45.6075 223.11 45.19 222.945 44.72C222.785 44.245 222.705 43.75 222.705 43.235C222.705 42.495 222.855 41.8375 223.155 41.2625C223.46 40.6825 223.887 40.2275 224.437 39.8975C224.992 39.5675 225.642 39.4025 226.387 39.4025C226.962 39.4025 227.475 39.5 227.925 39.695C228.375 39.885 228.757 40.155 229.072 40.505C229.392 40.85 229.632 41.255 229.792 41.72C229.957 42.185 230.04 42.69 230.04 43.235C230.04 43.97 229.892 44.635 229.597 45.23C229.302 45.82 228.88 46.29 228.33 46.64C227.785 46.985 227.142 47.1575 226.402 47.1575ZM226.395 46.2875C226.99 46.2875 227.482 46.1425 227.872 45.8525C228.267 45.5575 228.562 45.18 228.757 44.72C228.952 44.255 229.05 43.76 229.05 43.235C229.05 42.645 228.942 42.1275 228.727 41.6825C228.512 41.2375 228.205 40.8925 227.805 40.6475C227.41 40.3975 226.94 40.2725 226.395 40.2725C225.81 40.2725 225.315 40.405 224.91 40.67C224.51 40.93 224.207 41.285 224.002 41.735C223.797 42.185 223.695 42.685 223.695 43.235C223.695 43.76 223.795 44.255 223.995 44.72C224.195 45.18 224.495 45.5575 224.895 45.8525C225.295 46.1425 225.795 46.2875 226.395 46.2875ZM233.75 47C233.75 46.445 233.75 45.91 233.75 45.395C233.75 44.88 233.75 44.3175 233.75 43.7075V42.9575C233.75 42.5375 233.75 42.1525 233.75 41.8025C233.75 41.4475 233.75 41.1025 233.75 40.7675C233.75 40.4325 233.75 40.085 233.75 39.725L234.088 40.385H233.81C233.375 40.385 232.925 40.385 232.46 40.385C231.995 40.385 231.535 40.385 231.08 40.385V39.5675H237.388V40.385C236.938 40.385 236.478 40.385 236.008 40.385C235.543 40.385 235.093 40.385 234.658 40.385H234.38L234.718 39.725C234.718 40.085 234.718 40.4325 234.718 40.7675C234.718 41.1025 234.718 41.4475 234.718 41.8025C234.718 42.1525 234.718 42.5375 234.718 42.9575V43.7075C234.718 44.3175 234.718 44.88 234.718 45.395C234.718 45.91 234.718 46.445 234.718 47H233.75ZM239.012 47C239.012 46.445 239.012 45.91 239.012 45.395C239.012 44.88 239.012 44.3175 239.012 43.7075V42.9575C239.012 42.5275 239.012 42.125 239.012 41.75C239.012 41.375 239.012 41.01 239.012 40.655C239.012 40.3 239.012 39.9375 239.012 39.5675L239.964 39.53C239.964 40.075 239.964 40.6075 239.964 41.1275C239.964 41.6425 239.964 42.1925 239.964 42.7775C239.964 43.4025 239.964 43.985 239.964 44.525C239.964 45.065 239.964 45.6225 239.964 46.1975H241.584C241.994 46.1975 242.364 46.155 242.694 46.07C243.029 45.98 243.294 45.81 243.489 45.56C243.684 45.305 243.782 44.9325 243.782 44.4425C243.782 44.0875 243.724 43.805 243.609 43.595C243.494 43.385 243.344 43.23 243.159 43.13C242.979 43.025 242.779 42.9575 242.559 42.9275C242.344 42.8925 242.137 42.875 241.937 42.875H239.822L239.552 42.0725C239.867 42.0725 240.257 42.0725 240.722 42.0725C241.192 42.0725 241.629 42.0725 242.034 42.0725C242.644 42.0725 243.152 42.16 243.557 42.335C243.962 42.51 244.264 42.7725 244.464 43.1225C244.664 43.4675 244.764 43.9075 244.764 44.4425C244.764 44.9325 244.672 45.37 244.487 45.755C244.307 46.14 243.999 46.445 243.564 46.67C243.134 46.89 242.544 47 241.794 47C241.244 47 240.727 47 240.242 47C239.762 47 239.352 47 239.012 47ZM246.144 47C246.144 46.445 246.144 45.91 246.144 45.395C246.144 44.88 246.144 44.3175 246.144 43.7075V42.9575C246.144 42.5275 246.144 42.125 246.144 41.75C246.144 41.375 246.144 41.01 246.144 40.655C246.144 40.3 246.144 39.9375 246.144 39.5675L247.104 39.5375C247.104 39.9075 247.104 40.2725 247.104 40.6325C247.104 40.9875 247.104 41.355 247.104 41.735C247.104 42.11 247.104 42.5175 247.104 42.9575V43.7075C247.104 44.3175 247.104 44.88 247.104 45.395C247.104 45.91 247.104 46.445 247.104 47H246.144Z" fill="#84663E"/>
</svg>
