<svg width="47" height="47" viewBox="0 0 47 47" fill="none" xmlns="http://www.w3.org/2000/svg">
<g id="free-icon-360-degrees-587528 1" clip-path="url(#clip0_13_222)">
<g id="Group">
<g id="Group_2">
<path id="Vector" d="M46.9263 22.3914C46.8593 21.8889 46.3972 21.5359 45.895 21.6029C45.3925 21.6699 45.0395 22.1317 45.1065 22.6343C45.1447 22.9205 45.1641 23.2118 45.1641 23.5C45.1641 26.5886 42.9798 29.5325 39.0139 31.7896C34.8848 34.1394 29.3753 35.4336 23.5 35.4336C19.7875 35.4336 16.2214 34.9163 13.057 33.943C12.0837 30.7786 11.5664 27.2125 11.5664 23.5C11.5664 17.6248 12.8606 12.1152 15.2104 7.98614C17.4675 4.02006 20.4114 1.83594 23.5 1.83594C26.0918 1.83594 28.1556 3.33057 29.6416 4.97383H28.7014C28.1945 4.97383 27.7834 5.3848 27.7834 5.8918C27.7834 6.39879 28.1945 6.80977 28.7014 6.80977H31.5494C32.0563 6.80977 32.4674 6.39879 32.4674 5.8918V3.04371C32.4674 2.53672 32.0563 2.12574 31.5494 2.12574C31.0425 2.12574 30.6314 2.53672 30.6314 3.04371V3.35297C28.5025 1.17482 26.0322 0 23.5 0C19.7229 0 16.2123 2.51367 13.6147 7.078C11.1099 11.4794 9.73047 17.3114 9.73047 23.5C9.73047 26.9003 10.1478 30.1924 10.9385 33.1992C9.8935 32.7832 8.9054 32.3128 7.98614 31.7895C4.02015 29.5325 1.83594 26.5886 1.83594 23.5C1.83594 20.8929 3.3482 18.8197 5.00293 17.3317V18.2671C5.00293 18.7741 5.414 19.1851 5.9209 19.1851C6.4278 19.1851 6.83887 18.7741 6.83887 18.2671V15.419C6.83887 14.912 6.4278 14.5011 5.9209 14.5011H3.0729C2.566 14.5011 2.15493 14.912 2.15493 15.419C2.15493 15.926 2.566 16.337 3.0729 16.337H3.38574C1.18675 18.4732 0 20.9552 0 23.5C0 27.277 2.51367 30.7877 7.078 33.3852C8.45624 34.1696 9.97474 34.8435 11.6006 35.3994C12.1564 37.0252 12.8304 38.5438 13.6147 39.9219C16.2123 44.4863 19.7229 47 23.5 47C25.6654 47 27.8157 46.139 29.7184 44.5101C30.1035 44.1804 30.1486 43.6009 29.8188 43.2158C29.4892 42.8307 28.9097 42.7857 28.5245 43.1153C26.9366 44.4749 25.2461 45.1641 23.5 45.1641C20.4114 45.1641 17.4675 42.9799 15.2104 39.0139C14.6872 38.0945 14.2167 37.1064 13.8008 36.0615C16.8076 36.8522 20.0997 37.2695 23.5 37.2695C29.6886 37.2695 35.5206 35.8901 39.922 33.3852C44.4863 30.7877 47 27.277 47 23.5C47 23.1308 46.9751 22.7578 46.9263 22.3914Z" fill="#84663E"/>
</g>
</g>
<g id="Group_3">
<g id="Group_4">
<path id="Vector_2" d="M45.7979 19.1047C45.7969 19.1031 45.7955 19.1002 45.794 19.0977C45.5504 18.6577 44.997 18.4955 44.5538 18.7354C44.1081 18.9769 43.9424 19.534 44.1839 19.9798C44.1852 19.9821 44.19 19.991 44.1914 19.9933C44.3588 20.2962 44.6722 20.4671 44.9955 20.4671C45.1458 20.4671 45.2982 20.4301 45.439 20.3523C45.8826 20.1069 46.0433 19.5483 45.7979 19.1047Z" fill="#84663E"/>
</g>
</g>
<g id="Group_5">
<g id="Group_6">
<path id="Vector_3" d="M32.0736 40.3735C31.6618 40.0785 31.0852 40.1786 30.7896 40.5894C30.788 40.5916 30.7865 40.5937 30.7849 40.5959C30.4928 41.0092 30.5862 41.5872 30.999 41.8802C31.1586 41.9935 31.3427 42.0477 31.5254 42.0477C31.8152 42.0477 32.1017 41.9114 32.282 41.6587C32.576 41.2466 32.4852 40.6683 32.0736 40.3735Z" fill="#84663E"/>
</g>
</g>
<g id="Group_7">
<g id="Group_8">
<path id="Vector_4" d="M29.9734 20.8556C29.9578 19.5647 28.8983 18.5144 27.6115 18.5144H24.3738V16.0932C24.3738 15.8084 24.6054 15.5768 24.8901 15.5768H27.5518C28.0587 15.5768 28.4698 15.1659 28.4698 14.6589C28.4698 14.1519 28.0587 13.7409 27.5518 13.7409H24.8901C23.593 13.7409 22.5378 14.7961 22.5378 16.0932V23.5039C22.5378 24.801 23.593 25.8562 24.8901 25.8562H27.6115C28.8983 25.8562 29.9578 24.8059 29.9734 23.515C29.9735 23.5112 29.9735 23.5075 29.9735 23.5039V20.8667C29.9735 20.863 29.9735 20.8593 29.9734 20.8556ZM28.1374 23.4969C28.1316 23.7858 27.8966 24.0201 27.6115 24.0201H24.89C24.6053 24.0201 24.3737 23.7885 24.3737 23.5038V20.3503H27.6115C27.8966 20.3503 28.1317 20.5847 28.1374 20.8736V23.4969Z" fill="#84663E"/>
</g>
</g>
<g id="Group_9">
<g id="Group_10">
<path id="Vector_5" d="M36.0662 13.7409H33.3352C32.0381 13.7409 30.9829 14.7961 30.9829 16.0932V23.5039C30.9829 24.801 32.0381 25.8562 33.3352 25.8562H36.0662C37.3633 25.8562 38.4185 24.801 38.4185 23.5039V16.0932C38.4185 14.7961 37.3633 13.7409 36.0662 13.7409ZM36.5825 23.5039C36.5825 23.7886 36.3509 24.0202 36.0662 24.0202H33.3352C33.0505 24.0202 32.8188 23.7886 32.8188 23.5039V16.0932C32.8188 15.8084 33.0505 15.5768 33.3352 15.5768H36.0662C36.3509 15.5768 36.5825 15.8084 36.5825 16.0932V23.5039Z" fill="#84663E"/>
</g>
</g>
<g id="Group_11">
<g id="Group_12">
<path id="Vector_6" d="M19.1741 13.7409H16.8304C15.5334 13.7409 14.4781 14.7961 14.4781 16.0932V16.1256C14.4781 16.6326 14.8892 17.0436 15.3961 17.0436C15.903 17.0436 16.3141 16.6326 16.3141 16.1256V16.0932C16.3141 15.8084 16.5457 15.5768 16.8304 15.5768H19.1741C19.4589 15.5768 19.6905 15.8084 19.6905 16.0932V18.8806H17.3359C16.829 18.8806 16.4179 19.2916 16.4179 19.7986C16.4179 20.3056 16.829 20.7165 17.3359 20.7165H19.6905V23.5039C19.6905 23.7886 19.4589 24.0202 19.1741 24.0202H16.8304C16.5457 24.0202 16.3141 23.7886 16.3141 23.5039V23.3768C16.3141 22.8698 15.903 22.4589 15.3961 22.4589C14.8892 22.4589 14.4781 22.8698 14.4781 23.3768V23.5039C14.4781 24.801 15.5334 25.8562 16.8304 25.8562H19.1741C20.4712 25.8562 21.5264 24.801 21.5264 23.5039V16.0932C21.5264 14.7961 20.4712 13.7409 19.1741 13.7409Z" fill="#84663E"/>
</g>
</g>
<g id="Group_13">
<g id="Group_14">
<path id="Vector_7" d="M42.1301 12.2239C40.7875 12.2239 39.6952 13.3162 39.6952 14.6589C39.6952 16.0015 40.7875 17.0938 42.1301 17.0938C43.4727 17.0938 44.565 16.0015 44.565 14.6589C44.565 13.3162 43.4727 12.2239 42.1301 12.2239ZM42.1301 15.2577C41.7999 15.2577 41.5311 14.989 41.5311 14.6588C41.5311 14.3285 41.7999 14.0598 42.1301 14.0598C42.4604 14.0598 42.7291 14.3285 42.7291 14.6588C42.7291 14.989 42.4603 15.2577 42.1301 15.2577Z" fill="#84663E"/>
</g>
</g>
</g>
<defs>
<clipPath id="clip0_13_222">
<rect width="47" height="47" fill="white"/>
</clipPath>
</defs>
</svg>
